<?xml version="1.0" encoding="utf-8"?>
<!-- Generator: Adobe Illustrator 24.1.1, SVG Export Plug-In . SVG Version: 6.00 Build 0)  -->
<svg version="1.1" id="Capa_1" xmlns="http://www.w3.org/2000/svg" xmlns:xlink="http://www.w3.org/1999/xlink" x="0px" y="0px"
	 viewBox="0 0 612 612" style="enable-background:new 0 0 612 612;" xml:space="preserve">
<style type="text/css">
	.st0{fill:#282424;}
	.st1{fill:#383131;}
	.st2{fill:#231E1C;}
</style>
<g>
	<path class="st0" d="M537.3,497.3c0,21.1-17.1,38.3-38.3,38.3H116.5c-21.1,0-38.3-17.1-38.3-38.3V114.8c0-21.1,17.1-38.3,38.3-38.3
		H499c21.1,0,38.3,17.1,38.3,38.3v57.4h38.3v-57.4c0-42.2-34.3-76.5-76.5-76.5H116.5C74.3,38.3,40,72.5,40,114.8v382.5
		c0,42.2,34.3,76.5,76.5,76.5H499c42.2,0,76.5-34.3,76.5-76.5v-57.4h-38.3V497.3z"/>
	<g>
		<path class="st1" d="M388.6,219.1H224.3l28.6-28.6L229.3,167l-68.6,68.7l68.6,68.7l23.5-23.5l-28.6-28.6h164.3
			c36.6,0,66.2,29.6,66.2,66.2c0,36.6-29.6,66.2-66.2,66.2H271.1V418h117.4c54.9,0,99.5-44.5,99.5-99.5
			C488,263.6,443.5,219.1,388.6,219.1z"/>
		<path class="st0" d="M449.8,240.2c14.3,17.2,22.9,39.4,22.9,63.5c0,54.9-44.5,99.5-99.5,99.5H271.1V418h117.4
			c54.9,0,99.5-44.5,99.5-99.5C488,286.7,473.1,258.4,449.8,240.2z"/>
		<path class="st0" d="M388.6,252.3c14.1,0,27.1,4.4,37.9,11.9c-12.1-16.2-31.4-26.8-53.2-26.8H237.9c-7.3,0-13.3,5.9-13.3,13.3
			l0,1.8L388.6,252.3z"/>
		<path class="st2" d="M388.6,214.1H336c-2.8,0-5,2.2-5,5s2.2,5,5,5h52.6c52.1,0,94.5,42.4,94.5,94.5S440.7,413,388.6,413H276.1
			v-23.3h56.6c2.8,0,5-2.2,5-5c0-2.8-2.2-5-5-5h-61.6c-2.8,0-5,2.2-5,5V418c0,2.8,2.2,5,5,5h117.4c57.6,0,104.5-46.9,104.5-104.5
			C493,261,446.2,214.1,388.6,214.1z"/>
		<path class="st2" d="M236.3,257.3h152.2c33.7,0,61.2,27.5,61.2,61.2c0,33.8-27.5,61.2-61.2,61.2h-32.3c-2.8,0-5,2.2-5,5s2.2,5,5,5
			h32.3c39.3,0,71.2-31.9,71.2-71.2s-31.9-71.2-71.2-71.2H224.3c-2,0-3.8,1.2-4.6,3.1c-0.8,1.9-0.3,4,1.1,5.4l25,25l-16.5,16.5
			l-61.6-61.7l61.6-61.7l16.5,16.5l-25,25c-1.4,1.4-1.9,3.6-1.1,5.4c0.8,1.9,2.6,3.1,4.6,3.1h88.3c2.8,0,5-2.2,5-5c0-2.8-2.2-5-5-5
			h-76.3l20.1-20.1c2-1.9,2-5.1,0-7.1l-23.5-23.5c-0.9-0.9-2.2-1.5-3.5-1.5h0c-1.3,0-2.6,0.5-3.5,1.5l-68.6,68.7
			c-1.9,1.9-1.9,5.1,0,7.1l68.6,68.7c0.9,0.9,2.2,1.5,3.5,1.5h0c1.3,0,2.6-0.5,3.5-1.5l23.5-23.5c0.9-0.9,1.5-2.2,1.5-3.5
			c0-1.3-0.5-2.6-1.5-3.5L236.3,257.3z"/>
	</g>
</g>
</svg>
