<svg id="Layer_1" enable-background="new 0 0 512 512" height="512" viewBox="0 0 512 512" width="512" xmlns="http://www.w3.org/2000/svg"><g><g><path d="m394.674 224.006c-6.194 0-12.09-3.618-14.699-9.667l-54.498-126.337h-149.477c-8.836 0-16-7.164-16-16s7.164-16 16-16h160c6.387 0 12.162 3.798 14.691 9.663l58.667 136c3.5 8.114-.24 17.529-8.354 21.029-2.065.89-4.215 1.312-6.33 1.312z" fill="#cd3232"/></g><g><path d="m40 232.002 37.712 197.988c2.875 15.093 16.071 26.012 31.435 26.012h293.706c15.364 0 28.56-10.92 31.435-26.012l37.712-197.988z" fill="#32283c"/></g><g><path d="m40 232.002 37.712 197.988c2.875 15.093 16.071 26.012 31.435 26.012h181.706c15.364 0 28.56-10.92 31.435-26.012l37.712-197.988z" fill="#463c4b"/></g><g><path d="m488 232.002h-464c-4.418 0-8-3.582-8-8v-32c0-4.418 3.582-8 8-8h464c4.418 0 8 3.582 8 8v32c0 4.418-3.582 8-8 8z" fill="#32283c"/></g><g><path d="m353.905 264.002 6.095-32h-320l6.095 32z" fill="#32283c"/></g><g><path d="m376 232.002h-352c-4.418 0-8-3.582-8-8v-32c0-4.418 3.582-8 8-8h352c4.418 0 8 3.582 8 8v32c0 4.418-3.582 8-8 8z" fill="#463c4b"/></g><g><g><g><path d="m272 338.669h-16c-4.418 0-8-3.582-8-8v-32c0-4.418 3.582-8 8-8h16c4.418 0 8 3.582 8 8v32c0 4.418-3.582 8-8 8z" fill="#e6e6eb"/></g><g><path d="m208 338.669h-16c-4.418 0-8-3.582-8-8v-32c0-4.418 3.582-8 8-8h16c4.418 0 8 3.582 8 8v32c0 4.418-3.582 8-8 8z" fill="#e6e6eb"/></g><g><path d="m144 338.669h-16c-4.418 0-8-3.582-8-8v-32c0-4.418 3.582-8 8-8h16c4.418 0 8 3.582 8 8v32c0 4.418-3.582 8-8 8z" fill="#e6e6eb"/></g></g><g><g><path d="m272 418.669h-16c-4.418 0-8-3.582-8-8v-32c0-4.418 3.582-8 8-8h16c4.418 0 8 3.582 8 8v32c0 4.418-3.582 8-8 8z" fill="#e6e6eb"/></g><g><path d="m208 418.669h-16c-4.418 0-8-3.582-8-8v-32c0-4.418 3.582-8 8-8h16c4.418 0 8 3.582 8 8v32c0 4.418-3.582 8-8 8z" fill="#e6e6eb"/></g><g><path d="m144 418.669h-16c-4.418 0-8-3.582-8-8v-32c0-4.418 3.582-8 8-8h16c4.418 0 8 3.582 8 8v32c0 4.418-3.582 8-8 8z" fill="#e6e6eb"/></g></g></g><g><path d="m117.326 224.006c-2.115 0-4.264-.422-6.33-1.313-8.114-3.5-11.854-12.915-8.354-21.029l58.667-136c3.5-8.114 12.917-11.854 21.029-8.354 8.114 3.5 11.854 12.915 8.354 21.029l-58.667 136c-2.609 6.049-8.506 9.667-14.699 9.667z" fill="#ff4646"/></g><g><path d="m282.674 224.006c-6.194 0-12.09-3.618-14.699-9.667l-58.667-136c-3.5-8.114.24-17.529 8.354-21.029 8.112-3.5 17.528.24 21.029 8.354l58.667 136c3.5 8.114-.24 17.529-8.354 21.029-2.065.891-4.215 1.313-6.33 1.313z" fill="#ff4646"/></g></g></svg>