<svg id="Layer_1" enable-background="new 0 0 512 512" height="512" viewBox="0 0 512 512" width="512" xmlns="http://www.w3.org/2000/svg"><g><path d="m224 112-86.627 86.627c-6.001 6.001-9.373 14.141-9.373 22.627v210.746h128v-32c26.51 0 48-21.49 48-48v-240z" fill="#f0915a"/><g><path d="m376 328h-176c-17.673 0-32-14.327-32-32v-248c0-17.673 14.327-32 32-32h176c17.673 0 32 14.327 32 32v248c0 17.673-14.327 32-32 32z" fill="#cd3232"/></g><g><path d="m352 328h-152c-17.673 0-32-14.327-32-32v-248c0-17.673 14.327-32 32-32h152c17.673 0 32 14.327 32 32v248c0 17.673-14.327 32-32 32z" fill="#ff4646"/></g><g><path d="m200 16h48v312h-48z" fill="#463c4b"/></g><g><path d="m137.373 262.627 75.314-75.314c6.248-6.248 16.379-6.248 22.627 0l2.745 2.745c18.745 18.745 18.745 49.137 0 67.882l-30.059 30.06v64c0 26.51-21.49 48-48 48h-32v-114.745c0-8.487 3.371-16.626 9.373-22.628z" fill="#fab991"/></g><g><path d="m210.667 189.333c9.573 9.573 9.573 25.094 0 34.667-2.209 2.209-5.791 2.209-8 0l-13.333-13.333z" fill="#f0915a"/></g><g><path d="m280 496h-176v-40c0-13.255 10.745-24 24-24h128c13.255 0 24 10.745 24 24z" fill="#463c4b"/></g><g><path d="m208 456h72v40h-88v-24c0-8.837 7.163-16 16-16z" fill="#32283c"/></g><g><circle cx="328" cy="72" fill="#a5c3dc" r="32"/></g><g><circle cx="328" cy="120" fill="#e6e6eb" r="32"/></g></g></svg>