<?xml version="1.0" encoding="utf-8"?>
<!-- Generator: Adobe Illustrator 24.0.0, SVG Export Plug-In . SVG Version: 6.00 Build 0)  -->
<svg version="1.1" id="Layer_1" xmlns="http://www.w3.org/2000/svg" xmlns:xlink="http://www.w3.org/1999/xlink" x="0px" y="0px"
	 viewBox="0 0 512 512" style="enable-background:new 0 0 512 512;" xml:space="preserve">
<style type="text/css">
	.st0{opacity:0.5;fill:none;stroke:#000000;stroke-miterlimit:10;enable-background:new    ;}
	.st1{font-family:'HoonWcatR';}
	.st2{font-size:25px;}
	.st3{fill:none;stroke:#1D1D1B;stroke-width:3;stroke-miterlimit:10;}
	.st4{fill:url(#SVGID_1_);}
	.st5{fill:#1D1D1B;}
	.st6{fill:#FFFFFF;}
	.st7{fill:#34348A;}
	.st8{fill:#D7872E;}
	.st9{fill:#BD9E82;}
	.st10{fill:#63171C;}
	.st11{fill:#BD9E83;}
	.st12{fill:#35358A;}
	.st13{fill:#EB6D1E;}
	.st14{fill:#DCA676;}
	.st15{fill:#37368B;}
	.st16{fill:#38378C;}
	.st17{fill:#3E3D8F;}
	.st18{fill:#3B398D;}
	.st19{fill:#3A398D;}
	.st20{fill:#3F3E90;}
	.st21{fill:#434192;}
	.st22{fill:#36358B;}
	.st23{fill:#434191;}
	.st24{fill:#3F3D8F;}
	.st25{fill:#423F90;}
	.st26{fill:#33348A;}
	.st27{fill:#3C378C;}
	.st28{fill:#3C388B;}
	.st29{fill:#4D468F;}
	.st30{fill:#6361A6;}
	.st31{fill:#615EA3;}
	.st32{fill:#48428C;}
	.st33{fill:#625E9F;}
	.st34{fill:#5F5CA3;}
	.st35{fill:#34358B;}
	.st36{fill:#5D5A9F;}
	.st37{fill:#3A388C;}
	.st38{fill:#635EA0;}
	.st39{fill:#403B8D;}
	.st40{fill:#6460A4;}
	.st41{fill:#5E5AA0;}
	.st42{fill:#3C388C;}
	.st43{fill:#49438C;}
	.st44{fill:#6B5D99;}
	.st45{fill:#564D8D;}
	.st46{fill:#675F9F;}
	.st47{fill:#444293;}
	.st48{fill:#3A388D;}
	.st49{fill:#5E5A9D;}
	.st50{fill:#36358A;}
	.st51{fill:#494695;}
	.st52{fill:#63558D;}
	.st53{fill:#3C398D;}
	.st54{fill:#4A4696;}
	.st55{fill:#3E378C;}
	.st56{fill:#57559E;}
	.st57{fill:#5C59A1;}
	.st58{fill:#A19FCD;}
	.st59{fill:#3B388C;}
	.st60{fill:#6464AA;}
	.st61{fill:#BCA49C;}
	.st62{fill:#DCA576;}
	.st63{fill:#DCA575;}
	.st64{fill:#FCFCFD;}
	.st65{fill:#D4BFA3;}
	.st66{fill:#BBBADA;}
	.st67{fill:#FABE50;}
	.st68{fill:#FABD4F;}
	.st69{fill:#FABE4F;}
	.st70{fill:#F9BB4E;}
	.st71{fill:#97512A;}
	.st72{fill:#B0662B;}
	.st73{fill:#B76F30;}
	.st74{fill:#C07933;}
	.st75{fill:#B77233;}
	.st76{fill:#A0572B;}
	.st77{fill:#C07932;}
	.st78{fill:#B87231;}
	.st79{fill:#A9632E;}
	.st80{fill:#944D28;}
	.st81{fill:#B67032;}
	.st82{fill:#AF662B;}
	.st83{fill:#934F2C;}
	.st84{fill:#7F3824;}
	.st85{fill:#A55E2F;}
	.st86{fill:#B66E2F;}
	.st87{fill:#A6612F;}
	.st88{fill:#BB7432;}
	.st89{fill:#AE652E;}
	.st90{fill:#B86F30;}
	.st91{fill:#AB6731;}
	.st92{fill:#894227;}
	.st93{fill:#B26A2D;}
	.st94{fill:#AA642F;}
	.st95{fill:#B56C2F;}
	.st96{fill:#AA6029;}
	.st97{fill:#C77D32;}
	.st98{fill:#A8612E;}
	.st99{fill:#2A2524;}
	.st100{fill:#ED7122;}
	.st101{fill:#A24B28;}
	.st102{fill:#2D2726;}
	.st103{fill:#2B2525;}
	.st104{fill:#36368A;}
	.st105{fill:#36368B;}
	.st106{fill:#333863;}
	.st107{fill:#BC8E70;}
	.st108{fill:#E1DEE9;}
	.st109{fill:#554D8F;}
	.st110{fill:#514865;}
	.st111{fill:#927C87;}
	.st112{fill:#4E478F;}
	.st113{fill:#EDECF6;}
	.st114{fill:#EEEEF7;}
	.st115{fill:#E2E2F1;}
	.st116{fill:#F6F6FA;}
	.st117{fill:#F3F3F9;}
	.st118{fill:#2D3C8F;}
	.st119{fill:#DCDBEF;}
	.st120{fill:#D9A377;}
	.st121{fill:#C89370;}
	.st122{fill:#3F3D90;}
	.st123{fill:#3C3A8E;}
	.st124{fill:#BE907E;}
	.st125{fill:#8B89C1;}
	.st126{fill:#C0927C;}
	.st127{fill:#7473B3;}
	.st128{fill:#807FBA;}
	.st129{fill:#BDBCDA;}
	.st130{fill:#564C8F;}
	.st131{fill:#574C8E;}
	.st132{fill:#AFADD4;}
	.st133{fill:#A8A6D0;}
	.st134{fill:#FDE9DA;}
	.st135{fill:#FCDDC6;}
	.st136{fill:#EF8031;}
	.st137{fill:#F0863D;}
	.st138{fill:#FBD8BD;}
	.st139{fill:#7C7BB8;}
	.st140{fill:#2B3B8F;}
	.st141{fill:#454692;}
	.st142{fill:#313D90;}
	.st143{fill:#4C4996;}
	.st144{fill:#4B4796;}
	.st145{fill:#665893;}
	.st146{fill:#EE7D33;}
	.st147{opacity:0.9;enable-background:new    ;}
	.st148{font-size:20px;}
	.st149{fill:url(#SVGID_2_);}
</style>
<g>
	<path class="st0" d="M288.2,222.7h-73.9c-3.1,0-5.6-2.5-5.6-5.6v-18.9c0-3.1,2.5-5.6,5.6-5.6h73.9c3.1,0,5.6,2.5,5.6,5.6v18.9
		C293.8,220.2,291.3,222.7,288.2,222.7z"/>
	<text transform="matrix(1 0 0 1 221.2529 216.1591)" class="st1 st2">바로구매</text>
</g>
<g>
	<path class="st0" d="M288.2,303.3h-73.9c-3.1,0-5.6-2.5-5.6-5.6v-18.9c0-3.1,2.5-5.6,5.6-5.6h73.9c3.1,0,5.6,2.5,5.6,5.6v18.9
		C293.8,300.7,291.3,303.3,288.2,303.3z"/>
	<g>
		<text transform="matrix(1 0 0 1 221.512 296.7554)" class="st1 st2">장바구니</text>
	</g>
</g>
<path class="st3" d="M246.1,99.6"/>
<g>
	
		<linearGradient id="SVGID_1_" gradientUnits="userSpaceOnUse" x1="122.3465" y1="357.3955" x2="256.4346" y2="357.3955" gradientTransform="matrix(1 0 0 -1 0 514)">
		<stop  offset="0" style="stop-color:#FFFFFF"/>
		<stop  offset="1" style="stop-color:#DFB276"/>
	</linearGradient>
	<path class="st4" d="M280.9,144c0.9-0.1,1.8-0.1,2.7-0.2c-15.6-0.7-32,0.9-46.8-0.5c-0.9-0.3-2.8-0.9-3.7-1.1
		c-7.4-0.6-16.5,0.3-23.8,1.5c-3.6,0.6-6.1,4.5-6.1,4.5c-0.9,0.7-1.7,2.2-0.7,2.8c1.8,0.2,6.4-0.1,6.5,1.3c0,0.3-0.9,0.4-1.8,0.5
		c0.1,1.4-2.5,4.3-3.4,4.3c-0.9,0.7-6.2,3.1-7.1,3.9c-2.7,1.2,5.9,5.8,9.6,6.6c1.9,0.6,0.1,1.7,0.2,2.7c1.8-0.5,2.8,0.5,4.6,0.1
		c0,0.3,5.5,0.3,8.3,0.2c0,0,0.9-0.4,3.6-0.6c0.9-0.1,0.9-0.4,0.9-0.7c0,0.3,0,0.3,0,0.7c0.9-0.7,2.7-0.2,3.6-0.6c0,0.3,0,0.3,0,0.7
		c1.8-0.8,3.7-0.2,5.5-0.7c0,0.3,0,0.3,0,0.7c0.9-0.1,1.8-0.1,1.8,0.2s0,0.3,0,0.7c0.9,0.3,2.7-0.5,2.8,0.2c0-0.3,0-0.3,0-0.7
		c3.7-0.2,6.4-0.1,9.2,0.1c7.4,0.9,16.5-0.3,24.7-1.5c0.9-0.1,1.8-0.8,0.8-1.4c0.9-0.1,1.8-0.1,2.7-0.2c1.8-0.1,0.8-1.1,2.7-1.2
		c14.5-2.6,20.5-2.8,28.7-2.6c2.2-0.5-3.1-1.9-6.7-1.4c-2.3-0.2-1.6-0.1-2.6-0.2c-1-0.1-1.4-0.6-2.3-1s-1-0.9-3.7-0.7
		c0.9-0.1,1.8-0.1,2.7-0.2c0-0.3-2.2-0.8-2.2-0.8c-3.7-0.1-6.1-0.4-9.8-0.5c0,0-0.6-0.1-1.1-0.4l-0.8-0.5c-2-2.3,8.4-1.4,12.6-3.2
		c1.5-0.6,4.4-1.2,2.2-1.2h-5.1l1.8-0.6c3.8-0.9,4.7,0.1,10.2-0.3c-0.9,0.1,1.8-0.6,0.9-0.6c0-0.3,0-0.7-1-0.6
		c3.7-0.2,4.9,0.3,8.5-0.6c0.9-0.4-1.3-0.2-4.1-0.4c-2.7,0.2,0-1.4-2.7-1.2v-0.7c1.8-0.1,4.6,0.1,6.4-0.4c0.9-0.4-1.9-0.9-1-1.3
		c0.9-0.1,1.8-0.1,2.7-0.5c-2.7,0.2-6.4,0.7-9.1,0.6c-0.9-0.3-1.9-0.6-1.9-1.3c-4.5,0.6-8.3-0.2-11.1-1.7
		C288.2,143.2,283.6,143.8,280.9,144z"/>
	<g>
		<g>
			<path class="st5" d="M206.3,126.3l-2.5-5c0,0,1.7-0.2,2.1-2.2s0.2-5.6-3.9-5.5c0,0-0.7,0.1-2.7,1.2c0,0-2.4-1.7-5.1-0.9
				c-2.7,0.9-1.6,4.9-1.6,4.9s-1.7-0.9-3.1,0.2c-1.4,1.1-2.6,2.4-1.5,5.1s3.6,2.5,3.6,2.5l4.2,7c0,0,0.2,11.2-2.4,13.9
				c0,0,0,4.4,1.2,5.7c0,0-1.2,2.7,2.1,4.4c3.4,1.6,4.1,4,4.1,4s4,3,5,2.6s5.3-1.6,6.7-2.6c0,0-0.5-1.8-0.7-2l0.2-0.2l0.7-2.7
				c0,0,0.2-3,0.7-3.1s1.3-1,1.3-1s3-3.4,3.1-5.4l0.4-0.3l0.2-1.1l-0.1-0.7l-2.3-1.4l-1.5,0.3c0,0-1.2-0.2-1.3,0.1s-3.4,0.3-3.4,0.3
				l1.4-6.7l0.3-2.8l1.4-4.4l0.7-2.8l-3.8-2c0,0-2.8,0.8-2.9,0.8C207.1,126.7,206.3,126.3,206.3,126.3z"/>
			<path class="st5" d="M206.3,126.3l-2.5-5c0,0,1.7-0.2,2.1-2.2s0.2-5.6-3.9-5.5c0,0-0.7,0.1-2.7,1.2c0,0-2.4-1.7-5.1-0.9
				c-2.7,0.9-1.6,4.9-1.6,4.9s-1.7-0.9-3.1,0.2c-1.4,1.1-2.6,2.4-1.5,5.1s3.6,2.5,3.6,2.5l4.2,7c0,0,0.2,11.2-2.4,13.9
				c0,0,0,4.4,1.2,5.7c0,0-1.2,2.7,2.1,4.4c3.4,1.6,4.1,4,4.1,4s4,3,5,2.6s5.3-1.6,6.7-2.6c0,0-0.5-1.8-0.7-2l0.2-0.2l0.7-2.7
				c0,0,0.2-3,0.7-3.1s1.3-1,1.3-1s3-3.4,3.1-5.4l0.4-0.3l0.2-1.1l-0.1-0.7l-2.3-1.4l-1.5,0.3c0,0-1.2-0.2-1.3,0.1s-3.4,0.3-3.4,0.3
				l1.4-6.7l0.3-2.8l1.4-4.4l0.7-2.8l-3.8-2c0,0-2.8,0.8-2.9,0.8C207.1,126.7,206.3,126.3,206.3,126.3z"/>
			<path class="st5" d="M206.3,126.3l-2.5-5c0,0,1.7-0.2,2.1-2.2s0.2-5.6-3.9-5.5c0,0-0.7,0.1-2.7,1.2c0,0-2.4-1.7-5.1-0.9
				c-2.7,0.9-1.6,4.9-1.6,4.9s-1.7-0.9-3.1,0.2c-1.4,1.1-2.6,2.4-1.5,5.1s3.6,2.5,3.6,2.5l4.2,7c0,0,0.2,11.2-2.4,13.9
				c0,0,0,4.4,1.2,5.7c0,0-1.2,2.7,2.1,4.4c3.4,1.6,4.1,4,4.1,4s4,3,5,2.6s5.3-1.6,6.7-2.6c0,0-0.5-1.8-0.7-2l0.2-0.2l0.7-2.7
				c0,0,0.2-3,0.7-3.1s1.3-1,1.3-1s3-3.4,3.1-5.4l0.4-0.3l0.2-1.1l-0.1-0.7l-2.3-1.4l-1.5,0.3c0,0-1.2-0.2-1.3,0.1s-3.4,0.3-3.4,0.3
				l1.4-6.7l0.3-2.8l1.4-4.4l0.7-2.8l-3.8-2c0,0-2.8,0.8-2.9,0.8C207.1,126.7,206.3,126.3,206.3,126.3z"/>
			<path class="st6" d="M206.3,126.3l-2.5-5c0,0,1.7-0.2,2.1-2.2s0.2-5.6-3.9-5.5c0,0-0.7,0.1-2.7,1.2c0,0-2.4-1.7-5.1-0.9
				c-2.7,0.9-1.6,4.9-1.6,4.9s-1.7-0.9-3.1,0.2c-1.4,1.1-2.6,2.4-1.5,5.1s3.6,2.5,3.6,2.5l4.2,7c0,0,0.2,11.2-2.4,13.9
				c0,0,0,4.4,1.2,5.7c0,0-1.2,2.7,2.1,4.4c3.4,1.6,4.1,4,4.1,4s4,3,5,2.6s5.3-1.6,6.7-2.6c0,0-0.5-1.8-0.7-2l0.2-0.2l0.7-2.7
				c0,0,0.2-3,0.7-3.1s1.3-1,1.3-1s3-3.4,3.1-5.4l0.4-0.3l0.2-1.1l-0.1-0.7l-2.3-1.4l-1.5,0.3c0,0-1.2-0.2-1.3,0.1s-3.4,0.3-3.4,0.3
				l1.4-6.7l0.3-2.8l1.4-4.4l0.7-2.8l-3.8-2c0,0-2.8,0.8-2.9,0.8C207.1,126.7,206.3,126.3,206.3,126.3z"/>
		</g>
		<g>
			<path class="st7" d="M212.7,135.2c-0.3,0.2-0.2,0.6-0.3,0.8c-0.3,1,0,1.8,0.2,2.7c0.1,0.2,0,0.4,0.1,0.7c0,0.5,0.1,1,0.5,1.3
				c0.1,0.1,0.2,0.2,0.2,0.3c0,0.5,0.4,0.9,0.8,1.1c0.1,0.1,0.3,0.2,0.3,0.4c-0.6,1.8-1.9,2.9-3.3,4c-0.2,0.2-0.3,0.2-0.5-0.1
				c-0.2-0.4-0.6-0.6-1.1-0.5c-0.8,0.2-1.7,0.4-2.4,0.8c-0.3,0.2-0.6,0.5-0.7,0.9c-1.1-1.2-2.6-1.2-4.1-1.2c-0.1,0-0.2,0-0.2,0.1
				c-0.6,0.8-0.8,0.1-1.1-0.3c-1.6-1.6-3.4-1.5-5.4-1c-0.1,0-0.3,0.1-0.4,0.2c-0.6,0.5-1,0.2-1.3-0.4c-1.9-3.4-2.2-7-0.8-10.6
				c0.1-0.4,0.4-0.8,0.6-1.1c0.3-0.3,0.2-0.4-0.2-0.6c-2-0.7-3.2-2.3-3-4.3c0.1-1.6,0.9-2.9,2.2-3.7c2.2-1.3,4.5-1.8,6.9-0.7
				c0.8,0.4,1.4,0.9,1.9,1.7c0.2,0.3,0.3,0.4,0.7,0.3c0.9-0.2,1.8-0.1,2.7,0.2c0.2,0.1,0.4,0.2,0.4,0.4c-0.1,0.2-0.3,0.1-0.5,0
				c-0.8-0.1-1.7-0.2-2.5,0c-0.3,0-0.5,0.1-0.4,0.5c0,0.3,0,0.6-0.1,1c1.3-0.2,2.6-0.1,3.9,0.2c0.4,0.1,0.3-0.2,0.3-0.4
				c0-1.4-0.5-2.7-1-4c-0.5-1.2-1-2.3-1.7-3.3c-0.1-0.1-0.3-0.3-0.1-0.5s0.3,0,0.5,0.1c0.3,0.2,0.5,0.4,0.7,0.7
				c0.7,1.2,1.3,2.4,1.7,3.7c0.1,0.3,0.2,0.7,0.6,0.1c0.5-0.6,1.2-0.8,1.9-0.9c3.1-0.3,5.6,1,7.5,3.3c0.1,0.2,0.3,0.3,0.4,0.5
				c0.9,1.5,1.2,2.4-0.1,3.7c-0.1,0.2-0.2,0.3-0.4,0.4c-0.8,0.4-1.6,0.6-2.4,0.7c-0.6,0.1-0.6,0.2-0.3,0.7c0.1,0.2,0.3,0.4,0.4,0.6
				C213.4,134.6,213.3,135.1,212.7,135.2z"/>
			<path class="st8" d="M214.4,142.6c-0.2-0.2-0.4-0.3-0.6-0.5c-0.1-0.1-0.4-0.2-0.4-0.3c-0.1-1-1-1.6-0.9-2.7
				c0.1-0.5,0-1.2-0.4-1.8c-0.3-0.4,0.2-0.9,0.3-1.3c1,1,1.1,1.2,2.1,0.6c0.1,0,0.1-0.1,0.2-0.1c1,0.4,1.9-0.5,2.8-0.2
				c0.5,0.1,0.7-0.4,0.8-0.7c0.1-0.4,0.3-0.7,0.8-0.5c0.2,0,0.3,0,0.4-0.1c0.6-0.8,1.4-1.3,2.2-1.9c0.3-0.3,0.6-0.8,0.4-1.3
				c-0.3-0.7,0.1-1.1,0.5-1.5s0.9-0.8,1.1-1.4c0-0.1,0.1-0.3,0.1-0.4c0.1-0.7,0.4-0.9,1.1-0.7c0.5,0.2,1.1,0.3,1.6,0.3
				c0.6,0,0.8,0.6,1.2,0.9c0.5,0.4,1.2,0.5,1.7,0.9c0.3,0.2,0.6,0.5,0.7,0.8c0.2,0.6,0.4,1.1,0.7,1.6c0.4,0.6,0.2,1.4,0.3,2.1
				c0,0.2,0,0.5,0.2,0.7l0.1,0.1c-0.2,0.9,0.4,1.7,0.1,2.5c-0.2,0.6-0.4,1.3-0.3,1.8c0.1,0.7-0.4,1.1-0.8,1.3
				c-0.5,0.2-0.7,0.6-1,0.9c-0.6,0.6-1.1,1.3-1.6,1.9c-0.1,0.1-0.2,0.3-0.4,0.4c-1.4,0.6-2.7,1.5-4.2,1.8c-1.3,0.3-2.7,0.5-3.9-0.4
				c-0.1-0.1-0.3-0.1-0.4,0c-0.2,0.1-0.4,0.1-0.5-0.1c-0.3-0.4-0.7-0.4-1.1-0.5c-1-0.3-1.7-1-2.2-1.8
				C214.8,142.9,214.6,142.7,214.4,142.6z"/>
			<path class="st9" d="M194.1,174.1L194,174c-0.2-0.1-0.4-0.2-0.5-0.3l-0.1-0.1c-0.2-0.1-0.5-0.2-0.7-0.3s-0.4-0.2-0.6-0.3
				c-0.2-0.1-0.4-0.2-0.5-0.3c-0.2-0.1-0.4-0.2-0.6-0.2c-0.1,0-0.1-0.1-0.2-0.1c-0.1-0.1-0.3-0.1-0.4-0.2c-0.2-0.1-0.3-0.2-0.5-0.3
				c0,0-0.1,0-0.1-0.1c-0.3-0.1-0.5-0.2-0.8-0.3c-0.2-0.1-0.4-0.2-0.5-0.3s-0.3-0.1-0.4-0.2c-0.3-0.1-0.5-0.2-0.7-0.3
				s-0.4-0.1-0.6-0.2l-0.1-0.1c-0.4-0.1-0.7-0.3-1-0.4c-0.2,0-0.4-0.2-0.7-0.2c-0.2-0.1-0.5-0.3-0.6-0.5c-0.1-0.1-0.1-0.3-0.1-0.4
				c0-0.2,0.1-0.4,0.2-0.6v-0.1c0.1-0.2,0.2-0.4,0.3-0.6c0.1-0.2,0.2-0.2,0.3-0.4c0,0,0-0.1,0.1-0.1c0.2-0.3,0.3-0.7,0.5-1
				c0,0,0,0,0-0.1c0.1-0.2,0.3-0.4,0.3-0.6c0.1-0.2,0.2-0.3,0.3-0.5c0-0.2,0.1-0.3,0.2-0.4c0.1-0.3,0.2-0.5,0.4-0.7v-0.1
				c0.1-0.3,0.2-0.5,0.3-0.7c0-0.1,0.1-0.2,0.1-0.3c0.1-0.2,0.2-0.3,0.3-0.5c0,0,0-0.1,0.1-0.1c0.1-0.2,0.3-0.4,0.2-0.7
				c0-0.1,0.1-0.1,0.1-0.2c0.1-0.2,0.2-0.5,0.3-0.7s0.2-0.4,0.3-0.5c0.1-0.2,0.1-0.3,0.2-0.5c0.1-0.1,0.2-0.2,0.3-0.3
				c0.9-0.3,1.9-0.5,2.9-0.7c1.4-0.3,2.7-0.6,4.1-0.8c0.6,0,1,0.4,1.5,0.6c0.5,0.2,0.8,0.6,1.4,0.6c0-0.2-0.2-0.3-0.3-0.5
				c0-0.3,0.1-0.5,0.4-0.5c0.4,0.4,0.7,1,0.6,1.6c0.9,0.4,1.7,0.8,2.6,1.3c0.5,0.2,0.5,0.4,0.3,0.9c-0.2,0.3-0.3,0.6-0.4,0.9
				c-0.1,0.2-0.2,0.4-0.3,0.6c-0.7,2-1.6,3.9-2.4,5.8c-0.3,0.8-0.7,1.6-1,2.4c-0.1,0.4-0.4,0.7-0.5,1.2c-0.1,0.1-0.1,0.3-0.1,0.5
				c-0.1,0.3-0.1,0.6-0.3,0.8c0,0.1,0,0.2,0,0.2c-0.1,0.2-0.2,0.3-0.3,0.5c-0.1,0.1-0.1,0.1-0.2,0.2c-0.3,0.2-0.5,0.2-0.8,0.1
				c-0.2,0-0.4-0.1-0.6-0.2c-0.2-0.1-0.5-0.1-0.7-0.2l0,0C194.6,174.4,194.4,174.3,194.1,174.1z"/>
			<path class="st10" d="M212.7,135.2c0.4-0.3,0.5-0.7,0.8-1c0.2-0.4,0.6-0.5,0.9-0.8c0.5-0.4,1-0.9,1.5-1.3
				c0.1-0.1,0.2-0.2,0.4-0.2c1-0.2,1.7-0.9,2.6-1.2c0.1-0.1,0.3-0.3,0.3-0.4c0.2-0.8,0.8-1.1,1.5-1.5c0.8-0.5,1.5-0.5,2.3-0.4
				c0.4,0,0.4,0.1,0.3,0.5c-0.2,0.4-0.4,0.8-0.8,1c-0.7,0.5-1,1.1-0.9,1.9c0.1,0.5-0.1,0.8-0.4,1c-0.7,0.6-1.4,1.1-2,1.8l-0.1,0.1
				c-0.8-0.1-1.2,0.4-1.5,1.1c-0.1,0.2-0.2,0.1-0.4,0.1c-0.5,0-1.1,0-1.5,0.3c-0.2,0.1-0.3,0-0.5,0c-0.3-0.1-0.6-0.1-0.8,0
				C213.3,136.5,212.8,136.3,212.7,135.2z"/>
			<path class="st7" d="M214.2,161.7c-0.2,1.1-0.8,2.2-1.5,3.2c-1.1,1.5-2.6,2.7-4.3,3.4c-0.5,0.2-0.5,0.5-0.2,0.9
				c0.2,0.2,0.4,0.4,0.5,0.7c0,0.1,0.1,0.3,0,0.4c-0.5,0.3-0.6,0.9-1.3,1c-1.8,0.3-1.8,0.3-3-1.3c-0.2-0.2,0-0.3,0.1-0.4
				c2.6-2,4.8-4.5,6.6-7.2c0.2-0.3,0.6-0.4,0.9-0.5c0.3-0.1,0.4-0.3,0.3-0.6c0-0.4-0.6-0.9,0.2-1.1c0.7-0.2,1.3,0.3,1.4,1
				C214.2,161.3,214.2,161.5,214.2,161.7z"/>
			<path class="st7" d="M198.3,171.4c0.7-2,1.6-4,2.4-6c0.3-0.8,0.7-1.6,1-2.4c0.1,0,0.2,0,0.1,0.2c0.8,1.9,0.8,4,0.7,6.1
				c0,0.5,0.1,0.9,0.5,1.2c0.2,0.1,0.3,0.3,0.5,0.5c0.6,0.7,0.4,0.7-0.2,1.2c-0.5,0.4-1.2,0.3-1.7,0.7c-0.3,0.2-0.8,0-1.1-0.2
				c-0.6-0.3-1.1-0.5-1.7-0.6C198.7,171.8,198,172,198.3,171.4z"/>
			<path class="st7" d="M209.8,163.3c-1.5,2.1-3.2,4-5.3,5.5c-0.4,0.2-0.8,0.7-1.1,0.5c-0.4-0.2-0.2-0.8-0.2-1.2c0-0.9,0-1.8,0-2.6
				c-0.1-0.9-0.3-1.8-0.7-2.6c-0.1-0.1-0.1-0.1,0-0.2c2.5,1.1,5,0.8,7.6,0.3C210,163,209.8,163.1,209.8,163.3z"/>
			<path class="st7" d="M204.3,120.9c0.8-0.6,1.4-1.4,1.6-2.3c0.4-2-0.9-4.3-2.6-4.8c-1.4-0.3-2.6,0.1-3.5,1.2
				c-0.4,0.4-0.6,0.5-1,0.1c-1.1-1-2.3-1.3-3.7-0.9c-1.7,0.5-2.5,2-2.1,3.9c0.2,0.9,0.2,0.9-0.7,0.8c-1.8-0.3-3.7,0.7-4.1,2.4
				c-0.5,2,0.5,4.2,2.2,4.8c0.2,0.1,0.4,0,0.4,0.2c0,0.3-0.3,0.2-0.5,0.2c-0.8,0-1.3-0.5-1.8-1c-1.9-2.1-1.5-6.2,1.9-7.1
				c0.5-0.1,1-0.1,1.6-0.1c0.3,0,0.4,0,0.3-0.3c-0.4-1.4-0.1-2.6,1.1-3.5c1.4-1.1,3-1.3,4.5-0.4c1,0.6,1.6,0.6,2.6-0.1
				c2.4-1.7,5.6,0,6,3.1c0.2,1.2,0,2.3-0.6,3.3C205.4,120.8,205,121,204.3,120.9z"/>
			<path class="st7" d="M218.3,145.5c0.2,0,0.3,0.1,0.5,0.1c0,0.4,0,0.7,0,1.1c0,0.3,0,0.6-0.2,0.7c-0.7,0.4-0.7,1.1-0.9,1.7
				c-0.7,1.9-1.9,3.4-3.4,4.6c-0.6,0.5-1,1-1,1.8c-0.1,1.4-0.6,2.7-1.2,4c-0.1,0-0.2,0-0.1-0.1c0.2-1.8,0.7-3.6,0.7-5.5
				c0.1-1.7-0.2-3.3-1-4.9c-0.1-0.3-0.2-0.5-0.4-0.8c0-0.1,0-0.1,0-0.2c1.1,0.7,2,3,2.2,5.4c1.9-1.5,3.2-3.3,4-5.6
				c-0.8,0-1.6,0-2.4-0.3c-0.8-0.3-1.5-0.6-2-1.3c-0.1-0.1-0.2-0.3-0.1-0.4c0.1-0.2,0.3-0.1,0.5,0c0.1,0.1,0.3,0.2,0.4,0.3
				c1,0.7,2.2,1,3.4,0.9c0.6,0,0.9-0.3,0.9-0.9C218.3,145.9,218.3,145.7,218.3,145.5z"/>
			<path class="st7" d="M194.8,156.1c-0.6-0.5-1.1-2.1-0.7-2.7c0.2-0.3,0-0.4-0.1-0.6c-0.6-1.3-1.1-2.7-1.1-4.2
				c0-0.9,0.3-1.8,1.1-2.4c0.1-0.1,0.2-0.2,0.3-0.1c0.1,0.1,0,0.2,0,0.3c-0.9,1.3-0.8,2.7-0.4,4.1c0.1,0.3,0.2,0.5,0.3,0.8
				c0.3,1.2,0.7,2,2.3,1.9c1.3-0.1,2.6,0.5,3.7,1.3c0.4,0.3,0.5,0.2,0.6-0.2c0.6-1.6,1.1-3.3,1.1-5c0-0.2,0-0.4,0.1-0.8
				c0.4,0.5,0.3,0.9,0.3,1.3c0,1.7-0.4,3.3-1.1,4.9c-0.1,0.3-0.3,0.5-0.1,0.9c0.2,0.5-0.9,1.8-1.5,1.8c-0.1,0-0.3,0-0.3-0.1
				c-0.1-0.2,0.1-0.2,0.2-0.3c1.2-1.3,1.1-1.5-0.3-2.3c-1.2-0.7-2.5-1-3.9-0.9c-0.5,0-0.8,0.2-0.6,0.8c0.1,0.4,0.2,0.8,0.3,1.2
				C195,156.1,194.9,156.1,194.8,156.1z"/>
			<path class="st11" d="M192.7,156.1c0,0,0.1,0,0.1,0.1c0.2,0.1,0.5,0.2,0.7,0.2l0,0c0.2,0.2,0.5,0.4,0.8,0.5
				c0.2,0.1,0.3,0,0.5-0.1c0.3-0.1,0.6-0.3,1-0.1c0.1,0,0.2,0,0.3,0c0.3,0.1,0.3,0.3,0.2,0.5s-0.3,0.2-0.5,0.3
				c-1.7-0.1-3.2,0.5-4.9,0.8c-0.4,0.1-0.8,0.2-1.2,0.2c-0.3-0.1-0.3-0.2-0.2-0.5c0.1-0.2,0.2-0.4,0.3-0.6c0.1-0.2,0.2-0.4,0.3-0.6
				c0.1-0.2,0.2-0.4,0.3-0.5c0.1-0.2,0.1-0.5,0.3-0.6v-0.1c0.3-0.1,0.5,0,0.7,0.1s0.4,0.1,0.6,0.2
				C192.2,155.8,192.5,155.9,192.7,156.1z"/>
			<path class="st12" d="M197.8,122c-0.4-0.1-0.8-0.1-1.2-0.2c-0.5-0.1-1-1.2-0.7-1.6c0.1-0.1,0.2-0.2,0.3-0.2
				c0.2,0,0.3,0.2,0.3,0.3c-0.1,1,0.6,0.9,1.2,0.8c0.5-0.1,0.9-0.2,1.4-0.3c0.4-0.1,0.5-0.3,0.2-0.6c-0.1-0.1-0.4-0.2-0.2-0.5
				s0.4-0.1,0.6-0.1c0.2,0,0.3,0.2,0.5,0.3c0.4,0.1,0.8,0.3,0.8,0.8s-0.5,0.4-0.8,0.6C199.5,121.8,198.7,121.9,197.8,122z"/>
			<path class="st12" d="M196.2,157.2c0-0.2,0.1-0.4-0.1-0.5c0-0.2,0-0.2,0.2-0.2c0.8,0.2,1.7,0.4,2.5,0.8c0.3,0.2,0.3,0.3,0.2,0.6
				c-0.2,0.1-0.3,0.3-0.3,0.5c0,0.3,0.2,0.4,0.4,0.6c0,0.4-0.3,0.1-0.4,0.1c-0.8-0.4-1.7-0.8-2.5-1.2c-0.1,0-0.2-0.1-0.2-0.1
				c0-0.1,0-0.1,0-0.2C196,157.4,196.2,157.3,196.2,157.2z"/>
			<path class="st13" d="M196,157.7c0.1,0.1,0.1,0.1,0.2,0.2c-1.8,0.5-3.6,0.8-5.4,1.2c-0.6,0.1-1.2,0.3-1.8,0.4
				c-0.2-0.2,0.1-0.3,0.1-0.5l0,0c0-0.1,0.1-0.2,0.2-0.3c1.9-0.4,3.7-0.8,5.6-1.2C195.3,157.4,195.7,157.3,196,157.7z"/>
			<path class="st14" d="M215,143.1c0.8,0.6,1.4,1.3,2.2,1.8c-0.8,0.1-1.5-0.1-2.2-0.4c-0.4-0.2-0.6-0.4-0.3-0.9
				C214.8,143.5,214.9,143.3,215,143.1z"/>
			<path class="st15" d="M199.6,118.9c-0.5,0.1-0.8-0.4-1.2-0.6c-0.2-0.1,0-0.3,0.2-0.4c0.4-0.1,0.8-0.2,1.1-0.3
				c0.4,0,0.8,0,0.9,0.5C200.6,118.5,200.1,118.9,199.6,118.9z"/>
			<path class="st16" d="M209.8,150.4c-0.2,0-0.3-0.1-0.4-0.3c-0.1-0.2,0-0.4,0.3-0.4c0.4-0.1,0.9-0.3,1.3-0.4
				c0.2-0.1,0.4,0,0.5,0.2s0,0.4-0.2,0.5C210.8,150.2,210.3,150.2,209.8,150.4z"/>
			<path class="st17" d="M206.7,148.2c1.4-0.1,2.6-0.5,3.9-1.2C210,148.1,207.8,148.8,206.7,148.2z"/>
			<path class="st18" d="M206,148.3c-1.5,0.6-3.2,0.3-4.1-0.7C203.3,148,204.5,148.3,206,148.3z"/>
			<path class="st16" d="M197.1,119.3c0.1-0.3,0-0.7,0.5-0.6c0.4,0,0.6,0.4,0.7,0.8c0,0.4-0.1,0.6-0.5,0.6
				C197.3,120.2,197.2,119.7,197.1,119.3z"/>
			<path class="st19" d="M196.1,122.4c0,0.3-0.1,0.5-0.4,0.4c-0.4,0-0.7-0.3-0.7-0.7c0,0,0,0,0-0.1c0.2-0.3,0.1-0.8,0.5-0.8
				C195.9,121.5,195.9,122.1,196.1,122.4z"/>
			<path class="st16" d="M209.5,153.1c-0.3,0-0.6-0.2-0.5-0.5c0-0.3,0.2-0.5,0.5-0.5s0.5,0.1,0.5,0.4
				C210,152.9,209.8,153.1,209.5,153.1z"/>
			<path class="st20" d="M205.1,153.3c-0.3,0-0.5-0.2-0.5-0.5s0.2-0.5,0.5-0.5s0.5,0.2,0.5,0.5S205.4,153.3,205.1,153.3z"/>
			<path class="st21" d="M203.7,158.1c0.4,0.1,0.5,0.3,0.5,0.6s-0.2,0.5-0.5,0.4c-0.3,0-0.5-0.2-0.5-0.5S203.4,158.2,203.7,158.1z"
				/>
			<path class="st16" d="M209.2,159c0,0.3-0.2,0.5-0.5,0.5s-0.5-0.2-0.5-0.5s0.2-0.5,0.5-0.5C209,158.6,209.2,158.8,209.2,159z"/>
			<path class="st22" d="M209.8,155.6c0,0.3-0.2,0.5-0.5,0.6c-0.3,0-0.5-0.2-0.5-0.5s0.2-0.5,0.5-0.5
				C209.6,155.1,209.8,155.2,209.8,155.6z"/>
			<path class="st23" d="M202.1,160.7c-0.8-0.4-1.8-0.7-2.5-1.3c1,0.2,1.8,0.8,2.7,1.2C202.3,160.7,202.2,160.7,202.1,160.7z"/>
			<path class="st15" d="M204.6,156.3c-0.3,0-0.4-0.2-0.4-0.5s0.1-0.5,0.4-0.5c0.3,0,0.5,0.2,0.5,0.5S204.9,156.2,204.6,156.3z"/>
			<path class="st24" d="M202.1,160.7c0.1,0,0.1-0.1,0.2-0.1c0.6,0.1,0.7,0.3,0.4,0.9c-0.2,0.3-0.5,0.7-0.3,1.1c0,0.1,0,0.1,0,0.2
				c-0.1,0-0.2-0.1-0.2-0.1c-0.1,0-0.2,0-0.2-0.2c0.1-0.3,0.2-0.6,0.4-0.9C202.6,161.1,202.5,160.9,202.1,160.7z"/>
			<path class="st25" d="M195.8,156.6c-0.3,0.1-0.7,0.2-1,0.3c-0.1-0.1-0.1-0.2,0-0.2c0.1-0.2,0.2-0.4,0-0.5
				c0.1-0.1,0.1-0.1,0.2-0.2c0.1,0.2,0.1,0.3,0.4,0.3C195.6,156.3,195.8,156.4,195.8,156.6z"/>
			<path class="st26" d="M198.3,171.4c0,0.2,0,0.4,0.3,0.3c0.3-0.1,0.2,0.2,0.2,0.3c-0.5-0.1-0.7,0.1-0.8,0.5l0,0l0,0
				C197.9,172.1,198.1,171.7,198.3,171.4z"/>
			<path class="st27" d="M189.2,158.8c-0.1,0-0.1,0.1-0.2,0.1c0-0.4,0.2-0.8,0.4-1.1c0.1,0,0.1,0,0.2,0c0.1,0.1-0.2,0.3,0,0.4
				C189.7,158.6,189.3,158.6,189.2,158.8z"/>
			<path class="st28" d="M185.4,170c0.4,0.1,0.8,0.2,1.1,0.4C186.1,170.6,185.8,170.2,185.4,170C185.4,170.1,185.3,170.1,185.4,170
				L185.4,170z"/>
			<path class="st15" d="M185.5,166.3c0,0.4-0.2,0.7-0.5,1C185,166.8,185.2,166.5,185.5,166.3z"/>
			<path class="st29" d="M196,174.8c0.3,0,0.6,0,0.9-0.1C196.6,175,196.3,175.1,196,174.8C195.9,174.9,195.9,174.9,196,174.8
				L196,174.8z"/>
			<path class="st30" d="M188.3,160.7c-0.1,0.2-0.1,0.5-0.4,0.6c0-0.4,0.2-0.7,0.4-1C188.4,160.5,188.4,160.6,188.3,160.7z"/>
			<path class="st31" d="M194.4,156.9c-0.3-0.1-0.7-0.1-0.8-0.6c0.3,0.1,0.6,0.3,0.8,0.4C194.4,156.8,194.4,156.9,194.4,156.9
				L194.4,156.9z"/>
			<path class="st15" d="M187.2,163.1c-0.1,0.2-0.2,0.6-0.5,0.7c-0.1-0.3,0.2-0.5,0.3-0.7C187,163.1,187.1,163.1,187.2,163.1z"/>
			<path class="st32" d="M197.5,173.8c0-0.3,0.1-0.6,0.2-0.8c0.1,0,0.1,0.1,0.1,0.1C197.8,173.3,197.8,173.7,197.5,173.8z"/>
			<path class="st33" d="M190.7,155.6c0,0.3-0.1,0.5-0.3,0.7h-0.1C190.3,156,190.3,155.7,190.7,155.6z"/>
			<path class="st34" d="M194.1,174.1c0.2,0.1,0.6,0,0.7,0.4C194.6,174.5,194.3,174.4,194.1,174.1z"/>
			<path class="st35" d="M192.7,173.3c0.3,0,0.5,0.1,0.6,0.3C193.1,173.6,192.8,173.5,192.7,173.3L192.7,173.3z"/>
			<path class="st36" d="M192.7,156.1c-0.3,0-0.6-0.1-0.7-0.4C192.3,155.7,192.6,155.7,192.7,156.1z"/>
			<path class="st37" d="M188.8,171.4c0.3,0.2,0.6,0.2,0.8,0.4c-0.3,0.1-0.5-0.1-0.8-0.2C188.8,171.6,188.8,171.5,188.8,171.4z"/>
			<path class="st26" d="M187.8,161.5c0.2,0.3-0.1,0.5-0.2,0.7C187.5,161.9,187.6,161.7,187.8,161.5z"/>
			<path class="st38" d="M184.8,167.8c-0.1,0.2-0.2,0.4-0.4,0.5c0-0.2,0-0.4,0.2-0.6C184.6,167.7,184.7,167.7,184.8,167.8z"/>
			<path class="st26" d="M190.1,156.8c0,0.2,0,0.4-0.3,0.5l0,0C189.7,157,189.9,156.9,190.1,156.8L190.1,156.8z"/>
			<path class="st39" d="M185.4,170v0.1c-0.2-0.1-0.4-0.2-0.6-0.2C185,169.7,185.2,169.9,185.4,170z"/>
			<path class="st26" d="M190.1,156.8L190.1,156.8c-0.1-0.2,0.1-0.4,0.2-0.5h0.1C190.4,156.5,190.4,156.7,190.1,156.8z"/>
			<path class="st40" d="M188.8,171.4c0,0.1,0,0.1,0,0.2c-0.2-0.1-0.5-0.1-0.6-0.4C188.5,171.2,188.7,171.3,188.8,171.4z"/>
			<path class="st41" d="M190.4,172.2c0.2,0,0.3,0.1,0.3,0.3c-0.3,0-0.5-0.1-0.7-0.3C190.1,172.1,190.3,172.1,190.4,172.2z"/>
			<path class="st18" d="M192.7,173.3L192.7,173.3c-0.3,0.1-0.5-0.1-0.7-0.2V173v-0.1C192.3,173,192.5,173,192.7,173.3z"/>
			<path class="st7" d="M186.1,165.1c0,0.2,0,0.4-0.3,0.5l0,0C185.8,165.4,185.9,165.2,186.1,165.1z"/>
			<path class="st42" d="M189.9,157.3C189.9,157.3,189.8,157.3,189.9,157.3c0,0.2,0,0.4-0.2,0.5c-0.1,0-0.1,0-0.2,0
				C189.6,157.6,189.6,157.4,189.9,157.3z"/>
			<path class="st26" d="M190.9,172.6c0.3-0.2,0.4-0.1,0.6,0.2l0,0C191.2,172.8,191.1,172.6,190.9,172.6z"/>
			<path class="st43" d="M202,162.5c0.1,0.1,0.1,0.1,0.2,0.2c-0.1,0.2-0.2,0.4-0.3,0.6c0-0.1-0.1-0.1-0.1-0.2
				C201.8,162.8,201.9,162.6,202,162.5z"/>
			<path class="st44" d="M189.1,159c0,0.2-0.1,0.3-0.1,0.5c-0.1,0.1-0.2,0.1-0.3,0.1C188.7,159.3,188.8,159.1,189.1,159z"/>
			<path class="st45" d="M184.2,169c0,0.2,0,0.3,0,0.5c-0.4-0.1-0.2-0.4-0.1-0.6C184.1,168.8,184.1,168.9,184.2,169z"/>
			<path class="st46" d="M193.5,173.7c0.3-0.1,0.5,0,0.5,0.3C193.8,174,193.6,174,193.5,173.7z"/>
			<path class="st18" d="M197.1,174.6c0-0.3,0.1-0.5,0.3-0.5C197.4,174.3,197.3,174.5,197.1,174.6z"/>
			<path class="st47" d="M191.4,155.6c-0.2,0-0.5-0.1-0.7-0.1C191,155.2,191.2,155.3,191.4,155.6z"/>
			<path class="st18" d="M185.8,165.7C185.8,165.7,185.9,165.7,185.8,165.7c0.1,0.3-0.1,0.4-0.3,0.6
				C185.5,166,185.6,165.8,185.8,165.7z"/>
			<path class="st48" d="M187.3,170.8c0.3,0,0.5,0.1,0.6,0.3C187.6,171.1,187.4,171,187.3,170.8
				C187.2,170.8,187.2,170.8,187.3,170.8z"/>
			<path class="st48" d="M186.7,164c0,0.3-0.2,0.5-0.4,0.7C186.3,164.4,186.4,164.1,186.7,164z"/>
			<path class="st49" d="M184.8,167.8c-0.1,0-0.1,0-0.2,0c0.1-0.2,0.1-0.4,0.4-0.4C185,167.5,184.9,167.7,184.8,167.8z"/>
			<path class="st50" d="M197.8,173.1l-0.1-0.1c0-0.1,0-0.3,0.2-0.4h0.1C198,172.7,197.9,172.9,197.8,173.1z"/>
			<path class="st51" d="M191.5,172.8C191.5,172.8,191.5,172.7,191.5,172.8c0.2-0.1,0.4,0,0.5,0.2c0,0.1,0,0.1,0,0.2
				C191.8,173,191.6,173,191.5,172.8z"/>
			<path class="st52" d="M194.4,156.9v-0.1c0.1,0,0.3-0.1,0.4-0.1c0,0.1,0,0.2,0,0.2C194.7,156.9,194.6,157.1,194.4,156.9z"/>
			<path class="st42" d="M184.2,169c0-0.1-0.1-0.1-0.1-0.2c0-0.2,0-0.4,0.3-0.4C184.4,168.6,184.2,168.8,184.2,169z"/>
			<path class="st27" d="M188.3,160.7c0-0.1,0-0.2,0-0.3s0.1-0.3,0.2-0.3C188.6,160.3,188.5,160.5,188.3,160.7z"/>
			<path class="st53" d="M193.5,156.4c-0.3,0.1-0.5,0-0.7-0.2C193.1,156.1,193.3,156.2,193.5,156.4z"/>
			<path class="st54" d="M187.3,170.8L187.3,170.8c-0.3,0.1-0.5,0-0.7-0.2C186.8,170.6,187.1,170.5,187.3,170.8z"/>
			<path class="st55" d="M187.5,162.3c0,0.2-0.1,0.4-0.2,0.6c-0.1-0.1-0.1-0.2,0-0.3C187.3,162.5,187.3,162.3,187.5,162.3z"/>
			<path class="st56" d="M187.2,162.6c0,0.1,0,0.2,0,0.3s-0.1,0.1-0.1,0.2c-0.1,0-0.1,0-0.2,0C187,162.9,187.1,162.8,187.2,162.6z"
				/>
			<path class="st57" d="M194.8,174.5c0.3,0,0.5-0.1,0.7,0.2l0,0C195.2,174.8,195,174.7,194.8,174.5z"/>
			<path class="st58" d="M209.8,163.3c0-0.1,0.1-0.3,0.1-0.4c0.1-0.1,0.2-0.2,0.2,0S210,163.2,209.8,163.3z"/>
			<path class="st7" d="M195.5,174.8C195.5,174.8,195.5,174.7,195.5,174.8c0.2,0,0.4,0,0.5,0v0.1C195.8,174.9,195.6,175,195.5,174.8
				z"/>
			<path class="st59" d="M190.4,172.2c-0.1,0-0.2,0-0.3,0s-0.3-0.1-0.3-0.2C190,171.9,190.2,172,190.4,172.2z"/>
			<path class="st60" d="M212,159.4l0.1,0.1c0,0.1-0.1,0.2-0.1,0.4C211.8,159.7,211.9,159.6,212,159.4z"/>
			<path class="st61" d="M216.3,131.9c0,0.1-0.1,0.2-0.3,0.3c-0.1,0-0.1-0.1-0.1-0.1c0.1-0.1,0.3-0.2,0.4-0.3
				C216.3,131.8,216.3,131.8,216.3,131.9z"/>
			<path class="st62" d="M210.6,137.7c1.6,3.3-0.5,7.1-4.2,7.7c-1.9,0.3-3.8,0.2-5.3-1.1c-1.7-1.4-2.6-3.2-2.1-5.4
				c0.1-0.7,0.4-1.2,0.9-1.7c0.3-0.1,0.4-0.3,0.4-0.5s0.1-0.4,0.4-0.3c0.2,0.1,0.2,0.3,0.1,0.4c0,0.1,0,0,0.1,0.1
				c0.2,0,0.3,0.2,0.5,0.2c0.1,0,0.1,0,0.2,0.1c0.4,0.1,0.9,0.1,1.3,0c0.5,0,0.8,0.1,1.1,0.5c0.2,1.2,1.2,1.6,2.3,1
				c0.2-0.1,0.3-0.3,0.5-0.3c0.5-0.2,1.1,0,1.6,0c0.2,0,0.4,0.1,0.3,0.4c-0.3,0.1-0.5,0.3-0.6,0.6c-0.1,0.4-0.4,0.7-0.6,1.1
				c-1,1.7-3.7,1.5-4.5-0.3c-0.1-0.1-0.1-0.3-0.2-0.4c-0.2-0.5-0.5-0.7-1.1-0.6c0.6,0,0.9,0.3,1.1,0.7c0.7,1.6,1.7,2.1,3.5,1.8
				c0.6-0.1,0.9-0.6,1.3-1c0.2-0.3,0.4-0.7,0.6-1c0.1-0.2,0.2-0.5,0.5-0.5c0.1,0,0.3,0,0.3,0.1c0,0.5,0.5,0,0.5,0.3
				c0.1-0.1,0-0.3,0.1-0.4c0.2-0.5,0.4-1,0.8-1.3C210.3,137.5,210.4,137.4,210.6,137.7z"/>
			<path class="st63" d="M208.6,138.6c0-0.3-0.3-0.3-0.4-0.2c-0.5,0.2-0.9-0.1-1.4,0l-0.1-0.1c-0.2-0.4,0-0.9-0.6-1
				c-0.6-0.2-1.1-0.1-1.7,0.1c-0.2,0.1-0.3,0.2-0.5,0.2c-0.7-0.3-1.4-0.3-2.2-0.2c-0.2,0-0.2-0.1-0.2-0.2c0.3-0.2,0.6-0.2,0.9-0.2
				c0.5,0,0.7-0.3,0.7-0.8c0-0.4-0.4-0.7-0.9-0.7c-0.4,0-0.7,0.2-0.7,0.7c0,0.3,0.2,0.7,0,1c-0.1,0-0.2,0.2-0.4,0
				c-0.5-0.7-0.2,0.2-0.4,0.2c-0.5-0.2,0.1-0.6-0.1-0.9c-0.5,0,0,1-0.8,0.7c0.2-0.2,0.3-0.5,0.2-0.8c-0.2-0.7,0.1-1.2,0.7-1.5
				c1-0.7,2.4-0.5,3.2,0.5c0.3,0.4,0.6,0.5,1.1,0.4s1.1-0.1,1.6-0.1c0.2,0,0.4-0.1,0.5-0.3c0.7-0.6,1.4-0.7,2.2-0.3
				c0.7,0.3,1.1,0.8,1,1.7c0,0.3,0.2,0.7,0.3,1c-0.1,0-0.2-0.1-0.3,0c-0.4,0.5-0.7,1-0.8,1.6c0,0.2-0.1,0.3-0.2,0.2
				c-0.3-0.3-0.5,0-0.6,0.2c-0.4-0.1,0.3-0.5-0.1-0.6C208.6,138.9,208.9,138.8,208.6,138.6z"/>
			<path class="st64" d="M200.8,129.4c-1.7,0.6-3.3,1.5-4.8,2.8c-0.1-0.1-0.1-0.2-0.1-0.2c0.6-0.8,0.6-0.8-0.3-1.4
				c-0.3-0.2-0.7-0.5-1-0.7c-0.8-0.7-0.9-1.7-0.1-2.5c0.4-0.5,1-0.8,1.6-1.1c1-0.4,2-0.2,2.6,0.8c0.3,0.5,0.5,1,0.7,1.6
				c0.2,0.5,0.4,0.8,0.9,0.5C200.5,129.3,200.7,129.1,200.8,129.4z"/>
			<path class="st64" d="M211.8,132.6c-1.4-1.4-3.1-2.3-4.9-3c0.3-0.2,0.5-0.1,0.7,0c0.7,0.3,0.9,0,1.1-0.6c0.8-2.2,2.4-2.2,3.9-0.6
				c0.6,0.7,0.6,1.5-0.2,2.1c-0.3,0.2-0.6,0.5-1,0.6c-0.4,0.2-0.5,0.4-0.1,0.7C211.5,131.9,211.8,132.1,211.8,132.6z"/>
			<path class="st65" d="M215.9,132l0.1,0.1c-0.5,0.8-1.4,1-1.9,1.8c-0.1,0.2-0.4,0.2-0.6,0.3c-0.2-0.3-0.5-0.6-0.7-0.9
				c-0.3-0.3-0.2-0.5,0.2-0.6C214,132.6,215,132.4,215.9,132z"/>
			<path class="st66" d="M200.8,129.4c-0.1-0.2-0.3-0.1-0.4-0.1c0.2-0.1,0.4-0.2,0.5,0C200.9,129.3,200.9,129.4,200.8,129.4z"/>
			<path class="st67" d="M220.8,141.4c-0.2-0.3-0.5-0.5,0-0.9c0.2-0.1,0-0.3-0.1-0.4c-0.2-0.1-0.4-0.3-0.3-0.5
				c0.1-0.2,0.4,0,0.5-0.1c0.7-0.3,1.4,0,2.1-0.4c0.4-0.2,0.6,0.2,0.5,0.5c-0.1,0.6,0,1.4-0.7,1.7c-0.2,0.1-0.1,0.4-0.4,0.4
				c-0.2,0-0.3,0-0.5,0.1l-0.1,0.1c-0.4,0.3-0.6,0-0.9-0.2C220.8,141.7,220.9,141.5,220.8,141.4z"/>
			<path class="st67" d="M219.1,137.5c-0.4-0.4-0.2-1,0.4-1.2c0.2-0.1,0.4-0.1,0.6-0.4c0.2-0.3,0.6-0.2,0.9-0.1
				c0.6,0.2,0.8,1.3,0.4,1.8c-0.1,0.1-0.2,0.1-0.2,0.2c-0.2,0.5-0.4,0.4-0.8,0.2c-0.1,0-0.2,0-0.3,0c-0.2,0-0.3,0-0.4-0.1l0,0
				C219.6,137.7,219.4,137.5,219.1,137.5z"/>
			<path class="st67" d="M226.7,133.3c0.2,0.2,0.8-0.1,0.8,0.6c0,0.2,0.3,0.1,0.4,0.1c0.1,0,0.3-0.1,0.4,0.1
				c0.1,0.2-0.1,0.2-0.2,0.3c-0.4,0.4-0.8,0.9-1,1.5c-0.2,0.3-0.4,0.3-0.6,0.1c-0.6-0.4-0.8-1.4-0.4-2
				C226.5,133.3,226.5,133.3,226.7,133.3z"/>
			<path class="st68" d="M222.4,135.8c-0.5-0.1-0.7-0.5-0.6-0.9c0.2-0.9,0.6-1.3,1.3-1.3c0.9,0,1.1,0.4,0.8,1.2c0,0,0.1,0.1,0.1,0.2
				c0.1,0.2,0.1,0.5,0,0.7c-0.1,0-0.2,0.1-0.3,0.1C223.3,136,222.9,135.9,222.4,135.8z"/>
			<path class="st67" d="M224.4,133c-0.2-0.5-0.8-1,0-1.6c0.2-0.2,0.4-0.2,0.7-0.2c0.5,0,0.7,0.5,1.2,0.5c0.2,0,0.2,0.4,0,0.6
				c-0.1,0.1-0.4,0.1-0.4,0.4c-0.2,0-0.4,0-0.5,0.3l0,0C225,133.1,224.7,133.2,224.4,133z"/>
			<path class="st67" d="M225.3,138.1c-0.3,0.2-0.8,0.2-0.9,0.7c-0.5,0.2-0.2-0.3-0.4-0.4c-0.4-0.6,0.2-1.1,0.2-1.6l0.1-0.1
				c0.4,0.2,1-0.1,1.4,0.1c0.4,0.2,0.4,0.6,0.2,1.1C225.7,137.9,225.5,137.9,225.3,138.1z"/>
			<path class="st67" d="M218.3,141.8c-0.1,0-0.1,0-0.2,0c-0.3,0.3-0.4,0-0.5-0.2l0,0c-0.1-0.1-0.3-0.1-0.5-0.2
				c-0.2-0.1-0.3-0.2-0.2-0.4c0.3-0.6,0.9-0.8,1.4-1c0.3-0.2,0.6,0.1,0.7,0.4c0.2,0.3,0.3,0.7,0,1c-0.1,0.1-0.3,0.2-0.4,0.4
				C218.5,142.1,218.4,142,218.3,141.8z"/>
			<path class="st67" d="M226.4,141.2l-0.1,0.1c-0.3,0.1-0.6,0.1-1,0c-0.2-0.2-0.3-0.4,0-0.7c0.3-0.4,0.5-0.9,0.9-1.2
				c0.2-0.1,0.4-0.4,0.7-0.2s0.1,0.5,0.1,0.7s-0.1,0.4-0.1,0.6C226.8,140.7,226.5,140.9,226.4,141.2z"/>
			<path class="st67" d="M229.3,136.6c-0.1,0.2-0.2,0.6-0.6,0.5c-0.4-0.1-0.8-0.3-0.9-0.8c-0.1-0.4,0.2-0.6,0.5-0.8s0.6-0.3,0.8,0.1
				c0.2,0.3,0.9,0.2,0.6,0.8C229.7,136.6,229.5,136.8,229.3,136.6z"/>
			<path class="st68" d="M224,143.7c-0.4-0.1-0.4-0.5-0.2-0.7c0.4-0.4,0.9-0.7,1.6-0.7c0.2,0,0.4,0.1,0.5,0.3s-0.1,0.4-0.2,0.5
				c-0.3,0.3-0.8,0.3-1.1,0.6C224.4,143.8,224.2,143.9,224,143.7z"/>
			<path class="st69" d="M228.2,138.4c-0.2-0.1-0.3-0.3,0-0.4c0.2,0,0.4,0,0.5,0c0.4-0.1,0.8-0.3,1.1,0.1c0.3,0.4-0.1,0.8-0.2,1.2
				c-0.1,0.3-0.3,0.4-0.4,0c-0.1-0.3-0.3-0.4-0.6-0.4C228.5,138.7,228.4,138.5,228.2,138.4z"/>
			<path class="st68" d="M217.5,139.3C217.5,139.2,217.4,139.2,217.5,139.3c-0.2-0.4-0.6-0.7-0.3-1s1.2-0.2,1.5,0.1
				c0.3,0.4,0.1,0.7-0.3,0.9C218.1,139.4,217.8,139.4,217.5,139.3z"/>
			<path class="st69" d="M215.3,138.1c0.3,0,0.9,0.7,0.9,1.1c0,0.3-0.3,0.3-0.5,0.4c-0.1,0.1-1.3-0.7-1.3-0.8
				C214.5,138.5,214.9,138.1,215.3,138.1z"/>
			<path class="st69" d="M219.6,144.1c-0.5,0-0.8-0.3-0.8-0.8s0.6-0.6,0.8-0.6c0.4,0,0.6,0.4,0.7,0.9
				C220.3,144,219.8,143.9,219.6,144.1z"/>
			<path class="st68" d="M222,144.8c-0.4,0.2-0.7-0.1-0.9-0.3s-0.1-0.5,0.1-0.7c0.2-0.3,0.6-0.2,0.9-0.1c0.2,0.1,0.9,0.1,0.4,0.7
				C222.2,144.5,222.1,144.7,222,144.8z"/>
			<path class="st68" d="M228,131.8L228,131.8c0-0.4-0.4-0.9,0.1-1c0.4-0.1,0.6,0.4,1,0.7c0.1,0.1,0.1,0.2,0,0.3
				c-0.2,0.1-0.2,0.5-0.5,0.2C228.3,131.9,228.1,132,228,131.8z"/>
			<path class="st69" d="M214.7,141.8c-0.2-0.1-0.5-0.3-0.3-0.6c0.1-0.3,0.5-0.2,0.7-0.2c0.3,0,0.4,0.1,0.4,0.4
				c0,0.3,0.3,0.6-0.2,0.7C215,142.1,214.9,141.8,214.7,141.8z"/>
			<path class="st70" d="M226.1,129.2c0.5,0,0.8,0.2,0.9,0.6c0,0.2-0.2,0.3-0.4,0.3c-0.4,0-0.8-0.2-0.9-0.6
				C225.6,129.1,225.9,129.2,226.1,129.2z"/>
			<path class="st68" d="M229.4,134.5c-0.2-0.3-0.5-0.6-0.3-1.1c0.1-0.2,0.1-0.3,0.3-0.4c0.3,0,0.2,0.3,0.3,0.3
				c0.3,0.2,0,0.5,0.2,0.7C229.9,134.4,229.8,134.6,229.4,134.5z"/>
			<path class="st68" d="M224.5,129.9c0,0.3-0.5,1-0.8,1c-0.2,0-0.3-0.2-0.3-0.4c0.1-0.4,0.2-0.8,0.7-0.9
				C224.4,129.6,224.5,129.7,224.5,129.9z"/>
			<path class="st67" d="M216.6,143.4c-0.2-0.2-0.2-0.4,0-0.6c0.3-0.3,0.6,0.1,0.9,0.2c0.3,0.1,0.3,0.4,0.2,0.6
				c-0.2,0.1-0.4,0-0.6,0.1C216.8,143.7,216.7,143.6,216.6,143.4z"/>
			<path class="st68" d="M213.6,138.1c0.1,0.4,0.1,0.7-0.3,0.7c-0.4,0-0.4-0.5-0.5-0.8s0.2-0.4,0.4-0.5
				C214,137.5,213.5,138,213.6,138.1z"/>
			<path class="st67" d="M216.1,137.2c0-0.3,0.1-0.4,0.4-0.5c0.1,0,0.3,0,0.3,0.1c0.1,0.2-0.1,0.4-0.2,0.5
				C216.5,137.4,216.3,137.5,216.1,137.2z"/>
			<path class="st71" d="M221,141.7c0.3,0.2,0.6,0.4,0.9,0.3c-0.4,0.5-0.6,0.2-0.9-0.1C220.9,141.9,220.9,141.8,221,141.7z"/>
			<path class="st72" d="M222.4,135.8c0.4-0.1,0.9,0,1.3-0.1C223.3,136.1,222.9,136,222.4,135.8z"/>
			<path class="st73" d="M219.1,137.5c0.4-0.2,0.6,0,0.7,0.4C219.5,137.8,219.3,137.7,219.1,137.5z"/>
			<path class="st74" d="M228,131.8c0.2,0,0.4-0.1,0.5,0.1c-0.2,0.1-0.4,0.2-0.6,0.1C227.8,132,227.9,131.9,228,131.8z"/>
			<path class="st75" d="M216.1,137.2c0.2,0.2,0.4,0.1,0.5,0.1c0,0.2-0.1,0.3-0.3,0.2C216.3,137.5,216,137.5,216.1,137.2z"/>
			<path class="st76" d="M229.4,134.5c0.3,0,0.4-0.2,0.5-0.4C230,134.6,229.9,134.6,229.4,134.5z"/>
			<path class="st77" d="M225.3,133c0-0.5,0.2-0.4,0.5-0.3C225.7,133,225.5,132.9,225.3,133z"/>
			<path class="st78" d="M214.7,141.8c0.3-0.1,0.4,0.2,0.6,0.4C214.9,142.3,214.9,141.9,214.7,141.8z"/>
			<path class="st79" d="M226.4,141.2c0-0.4,0.3-0.5,0.5-0.7C226.9,140.8,226.6,141,226.4,141.2z"/>
			<path class="st80" d="M217.5,139.3c0.3,0,0.6,0,0.9,0C218.1,139.5,217.8,139.5,217.5,139.3z"/>
			<path class="st81" d="M217.2,141.4c0.2,0,0.3,0,0.4,0.2c-0.2,0-0.5,0.1-0.7-0.1C217,141.4,217.1,141.5,217.2,141.4z"/>
			<path class="st82" d="M224,143.7c0.2,0,0.4,0.1,0.7,0.1C224.4,144,224.2,144.1,224,143.7z"/>
			<path class="st83" d="M224.4,133c0.3,0,0.6,0,0.9,0C225,133.3,224.7,133.3,224.4,133z"/>
			<path class="st84" d="M225.3,141.3c0.3,0,0.6,0,1,0C225.9,141.5,225.6,141.5,225.3,141.3z"/>
			<path class="st85" d="M224,138.3c0.2,0.1,0.1,0.5,0.4,0.4c0,0.1-0.1,0.2-0.2,0.2C223.9,138.8,224,138.5,224,138.3z"/>
			<path class="st86" d="M217.6,141.7c0.2,0.1,0.3,0.3,0.5,0.2c0,0.1-0.1,0.3-0.2,0.2C217.7,142,217.6,141.8,217.6,141.7z"/>
			<path class="st87" d="M222,141.9c0.1-0.3,0.2-0.3,0.5-0.1C222.3,141.9,222.2,141.9,222,141.9z"/>
			<path class="st88" d="M218.3,141.8c0.1,0,0.3,0.1,0.4,0.1c0,0.1,0,0.2-0.2,0.2S218.3,142,218.3,141.8z"/>
			<path class="st89" d="M225.3,138.1c0.1-0.3,0.3-0.2,0.5-0.3C225.8,138,225.6,138.1,225.3,138.1z"/>
			<path class="st90" d="M228.2,138.4c0.2,0.1,0.4,0.2,0.4,0.5C228.4,138.8,228.2,138.6,228.2,138.4z"/>
			<path class="st91" d="M222,144.8c0.1-0.2,0.1-0.5,0.4-0.4C222.3,144.6,222.2,144.8,222,144.8z"/>
			<path class="st92" d="M217,143.7c0.2,0,0.4,0,0.7,0c-0.2,0.3-0.4,0.1-0.7,0.1C216.9,143.7,216.9,143.7,217,143.7
				C216.9,143.7,216.9,143.7,217,143.7z"/>
			<path class="st93" d="M217,143.7v0.1c-0.3,0-0.4-0.1-0.4-0.4C216.7,143.5,216.8,143.6,217,143.7z"/>
			<path class="st94" d="M221,141.7c0,0.1,0,0.1,0,0.2c-0.1-0.2-0.3-0.3-0.1-0.6C220.9,141.5,221,141.6,221,141.7z"/>
			<path class="st95" d="M219.7,137.9c0.1,0,0.3,0,0.4,0.1C219.9,138.3,219.8,138.1,219.7,137.9z"/>
			<path class="st96" d="M224,135.6c0-0.2,0-0.5,0-0.7C224.2,135.1,224.2,135.3,224,135.6z"/>
			<path class="st97" d="M217.2,141.4c-0.1,0-0.2,0.1-0.3,0.1c-0.2-0.1-0.2-0.3,0-0.4C217,141.3,217.1,141.4,217.2,141.4z"/>
			<path class="st98" d="M229.3,136.6c0.2-0.1,0.4-0.1,0.5-0.2C229.7,136.7,229.6,136.9,229.3,136.6z"/>
			<path class="st26" d="M191.6,164.9c0-0.6,0.1-1.2,0.5-1.6c0.1-0.1,0.1-0.1,0.1-0.2c-0.1-0.9,0.2-1.7,0.8-2.3
				c0.1-0.1,0.2-0.2,0.1-0.4c-0.3-0.5-0.2-1,0.2-1.3c0.5-0.4,1.1-0.3,1.6,0c0.4,0.2,0.6,0.6,0.5,1s0.3,0.4,0.5,0.6
				c0.3,0.2,0.3-0.1,0.4-0.3c0.3-0.4,0.8-0.4,1.2,0c0.3,0.3,0.6,0.7,0.7,1.2c0.1,0.4,0,0.8-0.6,0.8c-0.6-0.1-0.6,0.3-0.5,0.6
				c0.1,0.1,0.1,0.2,0.1,0.3c-0.1,0.5-0.4,0.9-0.7,1.3c-0.4,0.3-0.3,0.8-0.5,1.2c-0.2,0.1-0.3,0.2-0.6,0.2c-0.1-0.3,0-0.7-0.1-1
				c0-0.1-0.1,0-0.1,0h0.1c0.1,0.3,0.1,0.7,0,1c-0.2,0.6-0.6,1.1-1.1,1.4c-0.4,0.8-1.2,0.9-2,1.1c-0.2,0-0.4,0-0.5,0.1
				c0,0.1-0.1,0.2-0.2,0.3c-0.6,0.1-1.2-0.2-1.4-0.8c-0.5-1.4-0.3-2.1,1.1-3C191.5,165.1,191.6,165.1,191.6,164.9z"/>
			<path class="st99" d="M194.4,172.5c-0.5,0-1.4-0.6-1.3-0.8c0.3-0.4,0-1,0.6-1.2c0.1,0,1.7,0.8,1.6,0.9
				C195,171.8,194.7,172.2,194.4,172.5z"/>
			<path class="st100" d="M188.3,169.9c-0.4,0-1.5-0.7-1.5-0.9c0-0.4,0.7-1.4,0.9-1.4c0.4,0,1.5,0.8,1.5,1
				C189.3,169,188.6,169.9,188.3,169.9z"/>
			<path class="st101" d="M197.6,165.3c0,0.2-0.1,0.2-0.2,0.3c-0.3,0-0.6,0-0.8-0.2c0-0.1-0.1-0.1-0.1-0.2c0.2-0.7,0.6-1.3,0.8-2
				c0-0.1,0.1-0.2,0.2-0.3c0.4-0.2,0.9-0.1,1,0.3c0.2,0.4-0.1,0.8-0.5,1c-0.2,0.1-0.4,0.2-0.3,0.5
				C197.8,164.8,197.7,165.1,197.6,165.3z"/>
			<path class="st102" d="M193.3,170.5c-0.2,0.4-0.4,0.8-0.6,1.2c-0.1,0.2-0.2,0-0.3,0c-0.2-0.1-0.5-0.2-0.7-0.3s-0.6-0.1-0.4-0.4
				c0.1-0.3-0.1-0.8,0.5-0.7c0.1,0,0.2-0.1,0.3-0.2c0.2-0.1,0.4-0.1,0.3,0.2c0,0.2-0.1,0.3,0.1,0.4c0.2,0.1,0.3,0,0.4-0.2
				c0.1-0.1,0.2-0.2,0.3-0.1C193.3,170.3,193.3,170.4,193.3,170.5z"/>
			<path class="st103" d="M190.7,169.8c0.2-0.2-0.2-0.3,0-0.5c0.1-0.1,0.3,0,0.4,0.1c0.2,0.1,0.2,0.3,0.1,0.4c0,0.1-0.1,0.1-0.1,0.2
				c-0.4,0.8-1,0.9-1.7,0.3c-0.3-0.3,0.1-0.4,0-0.6c-0.1-0.3-0.2-0.4,0.2-0.3c0.2,0,0.2-0.2,0.3-0.3s0.2-0.1,0.3,0
				c0.1,0,0.1,0.1,0.1,0.2C190,169.8,190.5,169.7,190.7,169.8z"/>
			<path class="st104" d="M191.6,168.5c0.2-0.4,0.5-0.1,0.8-0.2c0.7-0.2,1.3-0.4,1.9-0.9c0.5,0.3,0.4,0.6,0,0.9
				c-0.2,0.2-0.5,0.3-0.8,0.4c-0.3,0.1-0.7,0-0.8,0.4c-0.1,0.2-0.6,0.2-0.7-0.2C191.8,168.7,191.7,168.6,191.6,168.5z"/>
			<path class="st105" d="M197.6,165.3c0-0.3,0.1-0.6-0.1-0.9c-0.1-0.1-0.1-0.3,0-0.4c0.2-0.1,0.3,0,0.5,0.1
				C198,164.5,198.1,165,197.6,165.3z"/>
			<path class="st106" d="M196.5,165.1c0,0.1,0,0.1,0,0.2c-0.1,0.4,0.3,0.3,0.5,0.4c-0.3,0.6-0.7,0.1-1,0.1c-0.1-0.5,0-1,0.4-1.3
				C196.6,164.6,196.4,164.9,196.5,165.1z"/>
			<path class="st107" d="M197.1,165.7c-0.1,0-0.3,0.1-0.4,0.1c-0.1,0-0.3,0-0.4-0.2c-0.1-0.2,0.2-0.2,0.3-0.3
				c0.2,0.1,0.5,0.2,0.7,0.3C197.2,165.6,197.1,165.6,197.1,165.7z"/>
			<path class="st108" d="M199.1,159c-0.2-0.2-0.8-0.1-0.4-0.6C198.9,158.5,199.1,158.7,199.1,159z"/>
			<path class="st109" d="M195.4,166c0-0.4,0-0.7,0-1.1h0.1c0,0.4,0,0.7,0,1.1C195.4,165.9,195.4,166,195.4,166z"/>
			<path class="st110" d="M197.4,162.8c0,0.1,0,0.2-0.1,0.3s-0.1,0.2-0.3,0.1c0-0.1,0-0.2,0-0.3
				C197.2,162.9,197.3,162.9,197.4,162.8z"/>
			<path class="st111" d="M191.6,168.5c0.2,0.1,0.3,0.2,0.2,0.4c-0.1,0-0.2,0-0.2,0C191.6,168.7,191.6,168.6,191.6,168.5z"/>
			<path class="st112" d="M191.6,164.9c0,0.1,0,0.3,0,0.5c-0.1-0.2-0.2-0.3-0.3-0.3C191.4,164.9,191.5,164.9,191.6,164.9z"/>
			<path class="st113" d="M208,170c0,0.1,0,0.3-0.2,0.3c-0.3-0.1-0.5-0.4-0.7-0.7c-0.1-0.1,0-0.2,0.2-0.2
				C207.7,169.4,207.9,169.7,208,170z"/>
			<path class="st114" d="M207.3,170.1c0,0.2-0.1,0.3-0.2,0.3c-0.2,0-0.3-0.2-0.4-0.4c0-0.2,0-0.3,0.2-0.2
				C207.1,169.8,207.2,170,207.3,170.1z"/>
			<path class="st115" d="M206.6,170.4c0,0.2-0.1,0.3-0.2,0.3c-0.2,0-0.3-0.1-0.3-0.3s0.1-0.3,0.2-0.3
				C206.5,170.1,206.5,170.3,206.6,170.4z"/>
			<path class="st116" d="M202,170.4c0.3,0,0.7,0.7,0.6,1c0,0.1-0.1,0.1-0.1,0.1c-0.3,0-0.3-0.2-0.5-0.4c-0.1-0.2-0.3-0.4-0.2-0.7
				C201.9,170.4,202,170.4,202,170.4z"/>
			<path class="st117" d="M201.9,171.5c0,0.2-0.1,0.4-0.2,0.3c-0.4-0.1-0.4-0.5-0.5-0.7s0.2-0.3,0.3-0.3
				C201.8,171,201.9,171.3,201.9,171.5z"/>
			<path class="st117" d="M201.2,171.9c0,0.1-0.1,0.3-0.2,0.3c-0.2,0-0.3-0.2-0.3-0.4s0.1-0.2,0.2-0.2
				C201.1,171.5,201.1,171.7,201.2,171.9z"/>
			<path class="st118" d="M189.2,158.8c0-0.3,0.2-0.4,0.4-0.6c1.4-0.3,2.9-0.5,4.3-0.9c0.7-0.2,1.3,0,1.9-0.1
				c0.1,0.1,0.2,0.1,0.1,0.2c0,0.1,0,0.1,0,0.2c-0.8-0.3-1.6,0.1-2.4,0.2C192.2,158.2,190.7,158.5,189.2,158.8z"/>
			<path class="st119" d="M196,157.5c0-0.1-0.1-0.2-0.1-0.2c0.1-0.1,0.2-0.1,0.4-0.1C196.2,157.3,196.3,157.6,196,157.5z"/>
			<path class="st7" d="M203.9,137.6c0.6-0.7,1.5-0.7,2.3-0.5c0.7,0.2,0.7,0.7,0.6,1.3c-0.5,0.6-1.1,0.7-1.8,0.7
				C204,139,203.7,138.5,203.9,137.6z"/>
			<path class="st12" d="M208.6,138.6c0.2,0.1,0.5-0.1,0.5,0.2c0,0.4-0.4,0.2-0.6,0.3c-0.2,0-0.2,0.2-0.3,0.3
				c-0.2,0.3-0.3,0.7-0.5,1c-0.6,1.3-1.8,1.5-3.1,1.4c-1.1-0.1-1.6-0.8-2-1.7c-0.2-0.5-0.4-0.9-1.1-0.8c-0.1,0-0.3,0-0.3-0.2
				s0.2-0.2,0.3-0.2c0.8-0.1,1.1,0,1.4,0.8c0.3,0.8,0.7,1.4,1.6,1.7c1.3,0.3,2.2-0.1,2.9-1.3c0.2-0.3,0.4-0.6,0.5-0.9
				C208,138.7,208.2,138.6,208.6,138.6z"/>
			<path class="st7" d="M208.4,137.4c-0.9-0.1-1-0.2-1-1c0-0.6,0.4-0.9,1-0.9c0.7,0.1,1.1,0.4,1,1
				C209.4,137.1,209,137.4,208.4,137.4z"/>
			<path class="st7" d="M201.4,137.1c-0.1-0.3-0.1-0.5-0.2-0.8c0-0.5,0.1-0.9,0.6-1s0.9,0,1.3,0.4c0.4,0.4,0.1,0.8-0.1,1.2
				c-0.2,0.3-0.5,0.3-0.7,0.3C202,137.2,201.7,137.2,201.4,137.1L201.4,137.1z"/>
			<path class="st7" d="M197,126.5c0.5,0.1,1,0.3,1.3,0.7c0.1,0.2,0.2,0.3,0.3,0.5c0.2,0.5,0.6,1.1,0.6,1.6c0,0.6-0.9,0.5-1.3,0.9
				c-0.8,0.9-1.5,0.5-2.3-0.1c-1.8-1.2-1.4-2.1,0.1-3.1C196.1,126.8,196.5,126.6,197,126.5z"/>
			<path class="st7" d="M210.5,127.5c0.8,0,2.1,0.9,2.2,1.6c0.1,0.4-0.1,0.7-0.3,0.9c-0.5,0.4-1,0.7-1.5,1c-0.2,0.1-0.3,0-0.4-0.1
				c-0.4-0.4-0.9-0.7-1.4-0.9c-0.2-0.1-0.3-0.2-0.2-0.5c0.3-0.6,0.5-1.2,1-1.7C210,127.6,210.3,127.5,210.5,127.5z"/>
			<path class="st120" d="M196,163.2c-0.1,0.6-0.5,0.9-1,0.9s-1.1-0.2-1.3-0.8c-0.2-0.5-0.1-1,0.4-1.4c0.3-0.2,0.4-0.6,0.8-0.3
				c0,0.1,0,0.2-0.1,0.2c-0.2,0.1-0.1,0.3,0,0.4l0.1,0.1c0.1,0.3,0.3,0.2,0.5,0.2s0.4,0.1,0.5,0.2C196.1,162.8,196.1,163,196,163.2z
				"/>
			<path class="st121" d="M197.1,163.3c0.1,0,0.2-0.1,0.3-0.1c-0.1,0.7-0.5,1.3-0.8,1.9c-0.2,0.1-0.3,0.1-0.2-0.2
				c0-0.2,0.1-0.3,0.2-0.5C196.7,164,196.9,163.7,197.1,163.3z"/>
			<path class="st122" d="M194,160.2c0-0.3-0.3-0.6,0-0.9c0.2,0,0.4,0,0.5,0.1l0,0c0.3,0.2,0.2,0.4,0.1,0.7
				C194.5,160.3,194.2,160.3,194,160.2z"/>
			<path class="st123" d="M197.3,161.7c-0.3,0.2-0.4,0-0.6-0.2c-0.1-0.2-0.2-0.3,0-0.5s0.4,0,0.6,0c0,0.1,0,0.1,0,0.2
				c-0.1,0.1,0,0.2-0.1,0.3C197.1,161.6,197.4,161.7,197.3,161.7z"/>
			<path class="st124" d="M194.8,161.7l0.1-0.1c0.2,0.5,0.7,0.5,1.1,0.6c-0.1,0.1-0.2,0.2-0.3,0.2c-0.1,0.1-0.3,0.1-0.4,0.1
				c-0.2,0-0.4,0-0.5-0.2c0-0.1,0-0.1,0-0.2C194.7,162,194.7,161.9,194.8,161.7z"/>
			<path class="st125" d="M194,160.2c0.2,0,0.4-0.1,0.7-0.1h0.1c0,0.1,0.3,0.2,0.1,0.2C194.6,160.4,194.3,160.3,194,160.2
				C194,160.3,194,160.3,194,160.2L194,160.2z"/>
			<path class="st126" d="M195.7,162.3c0.1,0,0.2-0.1,0.3-0.1c0.3,0.3,0.1,0.6,0,0.9c0-0.1,0-0.3-0.2-0.4
				C195.7,162.6,195.7,162.5,195.7,162.3z"/>
			<path class="st127" d="M194.5,159.4c-0.2-0.1-0.4,0.1-0.5-0.1C194.2,159.1,194.4,159.1,194.5,159.4z"/>
			<path class="st128" d="M191.2,168.7c-0.1,0-0.2,0-0.2-0.1s0.1-0.2,0.2-0.1c0.1,0,0.1,0.1,0.1,0.1
				C191.4,168.7,191.3,168.7,191.2,168.7z"/>
			<path class="st129" d="M194.8,160.1c-0.1,0.1-0.1,0.1-0.1,0c0-0.2,0.1-0.4-0.1-0.6C195,159.5,194.7,159.9,194.8,160.1z"/>
			<path class="st130" d="M191.8,166.1c-0.3,0.1-0.5,0.1-0.6-0.2C191.4,165.9,191.6,166,191.8,166.1z"/>
			<path class="st131" d="M193.4,164.3c0-0.2,0-0.4,0-0.7C193.6,163.9,193.4,164.1,193.4,164.3z"/>
			<path class="st132" d="M197.4,161.1c-0.2,0-0.4-0.2-0.6,0C197,160.7,197.2,160.8,197.4,161.1z"/>
			<path class="st133" d="M197.3,161.7c-0.2-0.1-0.2-0.1,0.1-0.4C197.5,161.5,197.5,161.6,197.3,161.7z"/>
			<path class="st134" d="M188.2,168.1c0.5,0.2,0.6,0.5,0.5,1c-0.1,0-0.1,0-0.1-0.1c-0.1-0.1-0.2-0.2-0.3-0.3
				C188.2,168.5,188.1,168.3,188.2,168.1z"/>
			<path class="st135" d="M188.7,168.9v0.1c-0.3,0.1-0.5,0.4-0.8,0v-0.1C188.1,168.5,188.4,168.9,188.7,168.9z"/>
			<path class="st136" d="M187.6,168.7c-0.1-0.1-0.1-0.2-0.1-0.4c0.1-0.2,0.2-0.1,0.3,0c0.1,0,0.1,0.1,0.1,0.2c0,0.1,0,0.2-0.1,0.3
				C187.8,168.8,187.7,168.8,187.6,168.7z"/>
			<path class="st137" d="M187.9,168.4v-0.1c0.1-0.1,0.2-0.2,0.3-0.3c0.2,0.2,0.2,0.4,0.2,0.6C188.1,168.8,188,168.6,187.9,168.4z"
				/>
			<path class="st138" d="M187.6,168.7c0.1,0,0.2,0,0.3,0c0.1,0.1,0.1,0.3,0,0.4l0,0C187.6,169.1,187.6,168.9,187.6,168.7z"/>
			<path class="st139" d="M192.5,168.9c0,0-0.1,0-0.1,0.1c-0.1,0-0.2,0-0.2-0.1l0.1-0.1C192.4,168.7,192.5,168.7,192.5,168.9z"/>
			<path class="st140" d="M194.8,162.3c0.2,0,0.4-0.1,0.5,0.1c0.1,0.1,0.1,0.1,0,0.2C195,162.8,194.8,162.8,194.8,162.3z"/>
			<path class="st141" d="M194.8,161.7c0.2,0.2,0.2,0.3,0,0.5c-0.1,0-0.3-0.1-0.3-0.2C194.5,161.8,194.6,161.7,194.8,161.7z"/>
			<path class="st142" d="M195.3,162.7c0-0.1,0-0.1,0-0.2c0.1,0,0.3-0.1,0.4-0.1c0.2,0.1,0.2,0.2,0.1,0.4
				C195.7,162.7,195.5,162.7,195.3,162.7z"/>
			<path class="st143" d="M194.8,163.2c-0.5,0-0.4-0.4-0.4-0.9C194.6,162.7,194.5,163.1,194.8,163.2L194.8,163.2z"/>
			<path class="st144" d="M194.8,163.2L194.8,163.2c0.2-0.1,0.3-0.1,0.5-0.1v0.1C195.2,163.3,195,163.5,194.8,163.2z"/>
			<path class="st145" d="M195.3,163.2L195.3,163.2c0-0.2,0.1-0.3,0.3-0.3l0.1,0.1C195.6,163.2,195.5,163.2,195.3,163.2z"/>
			<path class="st146" d="M187.9,169.1c0-0.1,0-0.3,0-0.4c0-0.1,0-0.2,0-0.3c0.1,0.1,0.3,0.2,0.4,0.2c0.2,0,0.2,0.1,0.3,0.3
				C188.4,169.1,188.1,168.7,187.9,169.1z"/>
		</g>
	</g>
	<g class="st147">
		
			<image style="overflow:visible;opacity:0.75;enable-background:new    ;" width="61" height="33" xlink:href="146334DF.png"  transform="matrix(1 0 0 1 221 143)">
		</image>
		<g>
			<text transform="matrix(1 0 0 1 225.6987 163.1039)" class="st6 st1 st148">바로구매</text>
		</g>
	</g>
</g>
<g>
	
		<linearGradient id="SVGID_2_" gradientUnits="userSpaceOnUse" x1="122.3465" y1="444.1955" x2="256.4346" y2="444.1955" gradientTransform="matrix(1 0 0 -1 0 514)">
		<stop  offset="0" style="stop-color:#FFFFFF"/>
		<stop  offset="1" style="stop-color:#DFB276"/>
	</linearGradient>
	<path class="st149" d="M280.9,57.2c0.9-0.1,1.8-0.1,2.7-0.2c-15.6-0.7-32,0.9-46.8-0.5c-0.9-0.3-2.8-0.9-3.7-1.1
		c-7.4-0.6-16.5,0.3-23.8,1.5c-3.6,0.6-6.1,4.5-6.1,4.5c-0.9,0.7-1.7,2.2-0.7,2.8c1.8,0.2,6.4-0.1,6.5,1.3c0,0.3-0.9,0.4-1.8,0.5
		c0.1,1.4-2.5,4.3-3.4,4.3c-0.9,0.7-6.2,3.1-7.1,3.9c-2.7,1.2,5.9,5.8,9.6,6.6c1.9,0.6,0.1,1.7,0.2,2.7c1.8-0.5,2.8,0.5,4.6,0.1
		c0,0.3,5.5,0.3,8.3,0.2c0,0,0.9-0.4,3.6-0.6c0.9-0.1,0.9-0.4,0.9-0.7c0,0.3,0,0.3,0,0.7c0.9-0.7,2.7-0.2,3.6-0.6c0,0.3,0,0.3,0,0.7
		c1.8-0.8,3.7-0.2,5.5-0.7c0,0.3,0,0.3,0,0.7c0.9-0.1,1.8-0.1,1.8,0.2c0,0.3,0,0.3,0,0.7c0.9,0.3,2.7-0.5,2.8,0.2c0-0.3,0-0.3,0-0.7
		c3.7-0.2,6.4-0.1,9.2,0.1c7.4,0.9,16.5-0.3,24.7-1.5c0.9-0.1,1.8-0.8,0.8-1.4c0.9-0.1,1.8-0.1,2.7-0.2c1.8-0.1,0.8-1.1,2.7-1.2
		c14.5-2.6,20.5-2.8,28.7-2.6c2.2-0.5-3.1-1.9-6.7-1.4c-2.3-0.2-1.6-0.1-2.6-0.2s-1.4-0.6-2.3-1s-1-0.9-3.7-0.7
		c0.9-0.1,1.8-0.1,2.7-0.2c0-0.3-2.2-0.8-2.2-0.8c-3.7-0.1-6.1-0.4-9.8-0.5c0,0-0.6-0.1-1.1-0.4l-0.8-0.5c-2-2.3,8.4-1.4,12.6-3.2
		c1.5-0.6,4.4-1.2,2.2-1.2h-5.1l1.8-0.6c3.8-0.9,4.7,0.1,10.2-0.3c-0.9,0.1,1.8-0.6,0.9-0.6c0-0.3,0-0.7-1-0.6
		c3.7-0.2,4.9,0.3,8.5-0.6c0.9-0.4-1.3-0.2-4.1-0.4c-2.7,0.2,0-1.4-2.7-1.2v-0.7c1.8-0.1,4.6,0.1,6.4-0.4c0.9-0.4-1.9-0.9-1-1.3
		c0.9-0.1,1.8-0.1,2.7-0.5c-2.7,0.2-6.4,0.7-9.1,0.6c-0.9-0.3-1.9-0.6-1.9-1.3c-4.5,0.6-8.3-0.2-11.1-1.7
		C288.2,56.4,283.6,57,280.9,57.2z"/>
	<g>
		<g>
			<path class="st5" d="M206.3,39.5l-2.5-5c0,0,1.7-0.2,2.1-2.2s0.2-5.6-3.9-5.5c0,0-0.7,0.1-2.7,1.2c0,0-2.4-1.7-5.1-0.9
				c-2.7,0.9-1.6,4.9-1.6,4.9s-1.7-0.9-3.1,0.2c-1.4,1.1-2.6,2.4-1.5,5.1c1.1,2.7,3.6,2.5,3.6,2.5l4.2,7c0,0,0.2,11.2-2.4,13.9
				c0,0,0,4.4,1.2,5.7c0,0-1.2,2.7,2.1,4.4s4.1,4,4.1,4s4,3,5,2.6s5.3-1.6,6.7-2.6c0,0-0.5-1.8-0.7-2l0.2-0.2l0.7-2.7
				c0,0,0.2-3,0.7-3.1s1.3-1,1.3-1s3-3.4,3.1-5.4l0.4-0.3l0.2-1.1l-0.1-0.7l-2.3-1.4l-1.5,0.3c0,0-1.2-0.2-1.3,0.1s-3.4,0.3-3.4,0.3
				l1.4-6.7l0.3-2.8l1.4-4.4l0.7-2.8l-3.8-2c0,0-2.8,0.8-2.9,0.8C207.1,39.9,206.3,39.5,206.3,39.5z"/>
			<path class="st5" d="M206.3,39.5l-2.5-5c0,0,1.7-0.2,2.1-2.2s0.2-5.6-3.9-5.5c0,0-0.7,0.1-2.7,1.2c0,0-2.4-1.7-5.1-0.9
				c-2.7,0.9-1.6,4.9-1.6,4.9s-1.7-0.9-3.1,0.2c-1.4,1.1-2.6,2.4-1.5,5.1c1.1,2.7,3.6,2.5,3.6,2.5l4.2,7c0,0,0.2,11.2-2.4,13.9
				c0,0,0,4.4,1.2,5.7c0,0-1.2,2.7,2.1,4.4s4.1,4,4.1,4s4,3,5,2.6s5.3-1.6,6.7-2.6c0,0-0.5-1.8-0.7-2l0.2-0.2l0.7-2.7
				c0,0,0.2-3,0.7-3.1s1.3-1,1.3-1s3-3.4,3.1-5.4l0.4-0.3l0.2-1.1l-0.1-0.7l-2.3-1.4l-1.5,0.3c0,0-1.2-0.2-1.3,0.1s-3.4,0.3-3.4,0.3
				l1.4-6.7l0.3-2.8l1.4-4.4l0.7-2.8l-3.8-2c0,0-2.8,0.8-2.9,0.8C207.1,39.9,206.3,39.5,206.3,39.5z"/>
			<path class="st5" d="M206.3,39.5l-2.5-5c0,0,1.7-0.2,2.1-2.2s0.2-5.6-3.9-5.5c0,0-0.7,0.1-2.7,1.2c0,0-2.4-1.7-5.1-0.9
				c-2.7,0.9-1.6,4.9-1.6,4.9s-1.7-0.9-3.1,0.2c-1.4,1.1-2.6,2.4-1.5,5.1c1.1,2.7,3.6,2.5,3.6,2.5l4.2,7c0,0,0.2,11.2-2.4,13.9
				c0,0,0,4.4,1.2,5.7c0,0-1.2,2.7,2.1,4.4s4.1,4,4.1,4s4,3,5,2.6s5.3-1.6,6.7-2.6c0,0-0.5-1.8-0.7-2l0.2-0.2l0.7-2.7
				c0,0,0.2-3,0.7-3.1s1.3-1,1.3-1s3-3.4,3.1-5.4l0.4-0.3l0.2-1.1l-0.1-0.7l-2.3-1.4l-1.5,0.3c0,0-1.2-0.2-1.3,0.1s-3.4,0.3-3.4,0.3
				l1.4-6.7l0.3-2.8l1.4-4.4l0.7-2.8l-3.8-2c0,0-2.8,0.8-2.9,0.8C207.1,39.9,206.3,39.5,206.3,39.5z"/>
			<path class="st6" d="M206.3,39.5l-2.5-5c0,0,1.7-0.2,2.1-2.2s0.2-5.6-3.9-5.5c0,0-0.7,0.1-2.7,1.2c0,0-2.4-1.7-5.1-0.9
				c-2.7,0.9-1.6,4.9-1.6,4.9s-1.7-0.9-3.1,0.2c-1.4,1.1-2.6,2.4-1.5,5.1c1.1,2.7,3.6,2.5,3.6,2.5l4.2,7c0,0,0.2,11.2-2.4,13.9
				c0,0,0,4.4,1.2,5.7c0,0-1.2,2.7,2.1,4.4s4.1,4,4.1,4s4,3,5,2.6s5.3-1.6,6.7-2.6c0,0-0.5-1.8-0.7-2l0.2-0.2l0.7-2.7
				c0,0,0.2-3,0.7-3.1s1.3-1,1.3-1s3-3.4,3.1-5.4l0.4-0.3l0.2-1.1l-0.1-0.7l-2.3-1.4l-1.5,0.3c0,0-1.2-0.2-1.3,0.1s-3.4,0.3-3.4,0.3
				l1.4-6.7l0.3-2.8l1.4-4.4l0.7-2.8l-3.8-2c0,0-2.8,0.8-2.9,0.8C207.1,39.9,206.3,39.5,206.3,39.5z"/>
		</g>
		<g>
			<path class="st7" d="M212.7,48.4c-0.3,0.2-0.2,0.6-0.3,0.8c-0.3,1,0,1.8,0.2,2.7c0.1,0.2,0,0.4,0.1,0.7c0,0.5,0.1,1,0.5,1.3
				c0.1,0.1,0.2,0.2,0.2,0.3c0,0.5,0.4,0.9,0.8,1.1c0.1,0.1,0.3,0.2,0.3,0.4c-0.6,1.8-1.9,2.9-3.3,4c-0.2,0.2-0.3,0.2-0.5-0.1
				c-0.2-0.4-0.6-0.6-1.1-0.5c-0.8,0.2-1.7,0.4-2.4,0.8c-0.3,0.2-0.6,0.5-0.7,0.9c-1.1-1.2-2.6-1.2-4.1-1.2c-0.1,0-0.2,0-0.2,0.1
				c-0.6,0.8-0.8,0.1-1.1-0.3c-1.6-1.6-3.4-1.5-5.4-1c-0.1,0-0.3,0.1-0.4,0.2c-0.6,0.5-1,0.2-1.3-0.4c-1.9-3.4-2.2-7-0.8-10.6
				c0.1-0.4,0.4-0.8,0.6-1.1c0.3-0.3,0.2-0.4-0.2-0.6c-2-0.7-3.2-2.3-3-4.3c0.1-1.6,0.9-2.9,2.2-3.7c2.2-1.3,4.5-1.8,6.9-0.7
				c0.8,0.4,1.4,0.9,1.9,1.7c0.2,0.3,0.3,0.4,0.7,0.3c0.9-0.2,1.8-0.1,2.7,0.2c0.2,0.1,0.4,0.2,0.4,0.4c-0.1,0.2-0.3,0.1-0.5,0
				c-0.8-0.1-1.7-0.2-2.5,0c-0.3,0-0.5,0.1-0.4,0.5c0,0.3,0,0.6-0.1,1c1.3-0.2,2.6-0.1,3.9,0.2c0.4,0.1,0.3-0.2,0.3-0.4
				c0-1.4-0.5-2.7-1-4c-0.5-1.2-1-2.3-1.7-3.3c-0.1-0.1-0.3-0.3-0.1-0.5s0.3,0,0.5,0.1c0.3,0.2,0.5,0.4,0.7,0.7
				c0.7,1.2,1.3,2.4,1.7,3.7c0.1,0.3,0.2,0.7,0.6,0.1c0.5-0.6,1.2-0.8,1.9-0.9c3.1-0.3,5.6,1,7.5,3.3c0.1,0.2,0.3,0.3,0.4,0.5
				c0.9,1.5,1.2,2.4-0.1,3.7c-0.1,0.2-0.2,0.3-0.4,0.4c-0.8,0.4-1.6,0.6-2.4,0.7c-0.6,0.1-0.6,0.2-0.3,0.7c0.1,0.2,0.3,0.4,0.4,0.6
				C213.4,47.8,213.3,48.3,212.7,48.4z"/>
			<path class="st8" d="M214.4,55.8c-0.2-0.2-0.4-0.3-0.6-0.5c-0.1-0.1-0.4-0.2-0.4-0.3c-0.1-1-1-1.6-0.9-2.7c0.1-0.5,0-1.2-0.4-1.8
				c-0.3-0.4,0.2-0.9,0.3-1.3c1,1,1.1,1.2,2.1,0.6c0.1,0,0.1-0.1,0.2-0.1c1,0.4,1.9-0.5,2.8-0.2c0.5,0.1,0.7-0.4,0.8-0.7
				c0.1-0.4,0.3-0.7,0.8-0.5c0.2,0,0.3,0,0.4-0.1c0.6-0.8,1.4-1.3,2.2-1.9c0.3-0.3,0.6-0.8,0.4-1.3c-0.3-0.7,0.1-1.1,0.5-1.5
				s0.9-0.8,1.1-1.4c0-0.1,0.1-0.3,0.1-0.4c0.1-0.7,0.4-0.9,1.1-0.7c0.5,0.2,1.1,0.3,1.6,0.3c0.6,0,0.8,0.6,1.2,0.9
				c0.5,0.4,1.2,0.5,1.7,0.9c0.3,0.2,0.6,0.5,0.7,0.8c0.2,0.6,0.4,1.1,0.7,1.6c0.4,0.6,0.2,1.4,0.3,2.1c0,0.2,0,0.5,0.2,0.7l0.1,0.1
				c-0.2,0.9,0.4,1.7,0.1,2.5c-0.2,0.6-0.4,1.3-0.3,1.8c0.1,0.7-0.4,1.1-0.8,1.3c-0.5,0.2-0.7,0.6-1,0.9c-0.6,0.6-1.1,1.3-1.6,1.9
				c-0.1,0.1-0.2,0.3-0.4,0.4c-1.4,0.6-2.7,1.5-4.2,1.8c-1.3,0.3-2.7,0.5-3.9-0.4c-0.1-0.1-0.3-0.1-0.4,0c-0.2,0.1-0.4,0.1-0.5-0.1
				c-0.3-0.4-0.7-0.4-1.1-0.5c-1-0.3-1.7-1-2.2-1.8C214.8,56.1,214.6,56,214.4,55.8z"/>
			<path class="st9" d="M194.1,87.3l-0.1-0.1c-0.2-0.1-0.4-0.2-0.5-0.3l-0.1-0.1c-0.2-0.1-0.5-0.2-0.7-0.3c-0.2-0.1-0.4-0.2-0.6-0.3
				c-0.2-0.1-0.4-0.2-0.5-0.3c-0.2-0.1-0.4-0.2-0.6-0.2c-0.1,0-0.1-0.1-0.2-0.1c-0.1-0.1-0.3-0.1-0.4-0.2c-0.2-0.1-0.3-0.2-0.5-0.3
				c0,0-0.1,0-0.1-0.1c-0.3-0.1-0.5-0.2-0.8-0.3c-0.2-0.1-0.4-0.2-0.5-0.3c-0.1-0.1-0.3-0.1-0.4-0.2c-0.3-0.1-0.5-0.2-0.7-0.3
				c-0.2-0.1-0.4-0.1-0.6-0.2l-0.1-0.1c-0.4-0.1-0.7-0.3-1-0.4c-0.2,0-0.4-0.2-0.7-0.2c-0.2-0.1-0.5-0.3-0.6-0.5
				c-0.1-0.1-0.1-0.3-0.1-0.4c0-0.2,0.1-0.4,0.2-0.6v-0.1c0.1-0.2,0.2-0.4,0.3-0.6s0.2-0.2,0.3-0.4c0,0,0-0.1,0.1-0.1
				c0.2-0.3,0.3-0.7,0.5-1c0,0,0,0,0-0.1c0.1-0.2,0.3-0.4,0.3-0.6c0.1-0.2,0.2-0.3,0.3-0.5c0-0.2,0.1-0.3,0.2-0.4
				c0.1-0.3,0.2-0.5,0.4-0.7v-0.1c0.1-0.3,0.2-0.5,0.3-0.7c0-0.1,0.1-0.2,0.1-0.3c0.1-0.2,0.2-0.3,0.3-0.5c0,0,0-0.1,0.1-0.1
				c0.1-0.2,0.3-0.4,0.2-0.7c0-0.1,0.1-0.1,0.1-0.2c0.1-0.2,0.2-0.5,0.3-0.7s0.2-0.4,0.3-0.5c0.1-0.2,0.1-0.3,0.2-0.5
				c0.1-0.1,0.2-0.2,0.3-0.3c0.9-0.3,1.9-0.5,2.9-0.7c1.4-0.3,2.7-0.6,4.1-0.8c0.6,0,1,0.4,1.5,0.6s0.8,0.6,1.4,0.6
				c0-0.2-0.2-0.3-0.3-0.5c0-0.3,0.1-0.5,0.4-0.5c0.4,0.4,0.7,1,0.6,1.6c0.9,0.4,1.7,0.8,2.6,1.3c0.5,0.2,0.5,0.4,0.3,0.9
				c-0.2,0.3-0.3,0.6-0.4,0.9c-0.1,0.2-0.2,0.4-0.3,0.6c-0.7,2-1.6,3.9-2.4,5.8c-0.3,0.8-0.7,1.6-1,2.4c-0.1,0.4-0.4,0.7-0.5,1.2
				c-0.1,0.1-0.1,0.3-0.1,0.5c-0.1,0.3-0.1,0.6-0.3,0.8c0,0.1,0,0.2,0,0.2c-0.1,0.2-0.2,0.3-0.3,0.5c-0.1,0.1-0.1,0.1-0.2,0.2
				c-0.3,0.2-0.5,0.2-0.8,0.1c-0.2,0-0.4-0.1-0.6-0.2c-0.2-0.1-0.5-0.1-0.7-0.2l0,0C194.6,87.6,194.4,87.5,194.1,87.3z"/>
			<path class="st10" d="M212.7,48.4c0.4-0.3,0.5-0.7,0.8-1c0.2-0.4,0.6-0.5,0.9-0.8c0.5-0.4,1-0.9,1.5-1.3c0.1-0.1,0.2-0.2,0.4-0.2
				c1-0.2,1.7-0.9,2.6-1.2c0.1-0.1,0.3-0.3,0.3-0.4c0.2-0.8,0.8-1.1,1.5-1.5c0.8-0.5,1.5-0.5,2.3-0.4c0.4,0,0.4,0.1,0.3,0.5
				c-0.2,0.4-0.4,0.8-0.8,1c-0.7,0.5-1,1.1-0.9,1.9c0.1,0.5-0.1,0.8-0.4,1c-0.7,0.6-1.4,1.1-2,1.8l-0.1,0.1
				c-0.8-0.1-1.2,0.4-1.5,1.1c-0.1,0.2-0.2,0.1-0.4,0.1c-0.5,0-1.1,0-1.5,0.3c-0.2,0.1-0.3,0-0.5,0c-0.3-0.1-0.6-0.1-0.8,0
				C213.3,49.7,212.8,49.5,212.7,48.4z"/>
			<path class="st7" d="M214.2,74.9c-0.2,1.1-0.8,2.2-1.5,3.2c-1.1,1.5-2.6,2.7-4.3,3.4c-0.5,0.2-0.5,0.5-0.2,0.9
				c0.2,0.2,0.4,0.4,0.5,0.7c0,0.1,0.1,0.3,0,0.4c-0.5,0.3-0.6,0.9-1.3,1c-1.8,0.3-1.8,0.3-3-1.3c-0.2-0.2,0-0.3,0.1-0.4
				c2.6-2,4.8-4.5,6.6-7.2c0.2-0.3,0.6-0.4,0.9-0.5c0.3-0.1,0.4-0.3,0.3-0.6c0-0.4-0.6-0.9,0.2-1.1c0.7-0.2,1.3,0.3,1.4,1
				C214.2,74.5,214.2,74.7,214.2,74.9z"/>
			<path class="st7" d="M198.3,84.6c0.7-2,1.6-4,2.4-6c0.3-0.8,0.7-1.6,1-2.4c0.1,0,0.2,0,0.1,0.2c0.8,1.9,0.8,4,0.7,6.1
				c0,0.5,0.1,0.9,0.5,1.2c0.2,0.1,0.3,0.3,0.5,0.5c0.6,0.7,0.4,0.7-0.2,1.2c-0.5,0.4-1.2,0.3-1.7,0.7c-0.3,0.2-0.8,0-1.1-0.2
				c-0.6-0.3-1.1-0.5-1.7-0.6C198.7,85,198,85.2,198.3,84.6z"/>
			<path class="st7" d="M209.8,76.5c-1.5,2.1-3.2,4-5.3,5.5c-0.4,0.2-0.8,0.7-1.1,0.5c-0.4-0.2-0.2-0.8-0.2-1.2c0-0.9,0-1.8,0-2.6
				c-0.1-0.9-0.3-1.8-0.7-2.6c-0.1-0.1-0.1-0.1,0-0.2c2.5,1.1,5,0.8,7.6,0.3C210,76.3,209.8,76.4,209.8,76.5z"/>
			<path class="st7" d="M204.3,34.1c0.8-0.6,1.4-1.4,1.6-2.3c0.4-2-0.9-4.3-2.6-4.8c-1.4-0.3-2.6,0.1-3.5,1.2
				c-0.4,0.4-0.6,0.5-1,0.1c-1.1-1-2.3-1.3-3.7-0.9c-1.7,0.5-2.5,2-2.1,3.9c0.2,0.9,0.2,0.9-0.7,0.8c-1.8-0.3-3.7,0.7-4.1,2.4
				c-0.5,2,0.5,4.2,2.2,4.8c0.2,0.1,0.4,0,0.4,0.2c0,0.3-0.3,0.2-0.5,0.2c-0.8,0-1.3-0.5-1.8-1c-1.9-2.1-1.5-6.2,1.9-7.1
				c0.5-0.1,1-0.1,1.6-0.1c0.3,0,0.4,0,0.3-0.3c-0.4-1.4-0.1-2.6,1.1-3.5c1.4-1.1,3-1.3,4.5-0.4c1,0.6,1.6,0.6,2.6-0.1
				c2.4-1.7,5.6,0,6,3.1c0.2,1.2,0,2.3-0.6,3.3C205.4,34,205,34.2,204.3,34.1z"/>
			<path class="st7" d="M218.3,58.7c0.2,0,0.3,0.1,0.5,0.1c0,0.4,0,0.7,0,1.1c0,0.3,0,0.6-0.2,0.7c-0.7,0.4-0.7,1.1-0.9,1.7
				c-0.7,1.9-1.9,3.4-3.4,4.6c-0.6,0.5-1,1-1,1.8c-0.1,1.4-0.6,2.7-1.2,4c-0.1,0-0.2,0-0.1-0.1c0.2-1.8,0.7-3.6,0.7-5.5
				c0.1-1.7-0.2-3.3-1-4.9c-0.1-0.3-0.2-0.5-0.4-0.8c0-0.1,0-0.1,0-0.2c1.1,0.7,2,3,2.2,5.4c1.9-1.5,3.2-3.3,4-5.6
				c-0.8,0-1.6,0-2.4-0.3c-0.8-0.3-1.5-0.6-2-1.3c-0.1-0.1-0.2-0.3-0.1-0.4c0.1-0.2,0.3-0.1,0.5,0c0.1,0.1,0.3,0.2,0.4,0.3
				c1,0.7,2.2,1,3.4,0.9c0.6,0,0.9-0.3,0.9-0.9C218.3,59.2,218.3,58.9,218.3,58.7z"/>
			<path class="st7" d="M194.8,69.3c-0.6-0.5-1.1-2.1-0.7-2.7c0.2-0.3,0-0.4-0.1-0.6c-0.6-1.3-1.1-2.7-1.1-4.2
				c0-0.9,0.3-1.8,1.1-2.4c0.1-0.1,0.2-0.2,0.3-0.1c0.1,0.1,0,0.2,0,0.3c-0.9,1.3-0.8,2.7-0.4,4.1c0.1,0.3,0.2,0.5,0.3,0.8
				c0.3,1.2,0.7,2,2.3,1.9c1.3-0.1,2.6,0.5,3.7,1.3c0.4,0.3,0.5,0.2,0.6-0.2c0.6-1.6,1.1-3.3,1.1-5c0-0.2,0-0.4,0.1-0.8
				c0.4,0.5,0.3,0.9,0.3,1.3c0,1.7-0.4,3.3-1.1,4.9c-0.1,0.3-0.3,0.5-0.1,0.9c0.2,0.5-0.9,1.8-1.5,1.8c-0.1,0-0.3,0-0.3-0.1
				c-0.1-0.2,0.1-0.2,0.2-0.3c1.2-1.3,1.1-1.5-0.3-2.3c-1.2-0.7-2.5-1-3.9-0.9c-0.5,0-0.8,0.2-0.6,0.8c0.1,0.4,0.2,0.8,0.3,1.2
				C195,69.3,194.9,69.3,194.8,69.3z"/>
			<path class="st11" d="M192.7,69.3c0,0,0.1,0,0.1,0.1c0.2,0.1,0.5,0.2,0.7,0.2l0,0c0.2,0.2,0.5,0.4,0.8,0.5c0.2,0.1,0.3,0,0.5-0.1
				c0.3-0.1,0.6-0.3,1-0.1c0.1,0,0.2,0,0.3,0c0.3,0.1,0.3,0.3,0.2,0.5s-0.3,0.2-0.5,0.3c-1.7-0.1-3.2,0.5-4.9,0.8
				c-0.4,0.1-0.8,0.2-1.2,0.2c-0.3-0.1-0.3-0.2-0.2-0.5c0.1-0.2,0.2-0.4,0.3-0.6s0.2-0.4,0.3-0.6s0.2-0.4,0.3-0.5
				c0.1-0.2,0.1-0.5,0.3-0.6v-0.1c0.3-0.1,0.5,0,0.7,0.1s0.4,0.1,0.6,0.2C192.2,69,192.5,69.2,192.7,69.3z"/>
			<path class="st12" d="M197.8,35.2c-0.4-0.1-0.8-0.1-1.2-0.2c-0.5-0.1-1-1.2-0.7-1.6c0.1-0.1,0.2-0.2,0.3-0.2
				c0.2,0,0.3,0.2,0.3,0.3c-0.1,1,0.6,0.9,1.2,0.8c0.5-0.1,0.9-0.2,1.4-0.3c0.4-0.1,0.5-0.3,0.2-0.6c-0.1-0.1-0.4-0.2-0.2-0.5
				s0.4-0.1,0.6-0.1c0.2,0,0.3,0.2,0.5,0.3c0.4,0.1,0.8,0.3,0.8,0.8s-0.5,0.4-0.8,0.6C199.5,35,198.7,35.1,197.8,35.2z"/>
			<path class="st12" d="M196.2,70.4c0-0.2,0.1-0.4-0.1-0.5c0-0.2,0-0.2,0.2-0.2c0.8,0.2,1.7,0.4,2.5,0.8c0.3,0.2,0.3,0.3,0.2,0.6
				c-0.2,0.1-0.3,0.3-0.3,0.5c0,0.3,0.2,0.4,0.4,0.6c0,0.4-0.3,0.1-0.4,0.1c-0.8-0.4-1.7-0.8-2.5-1.2c-0.1,0-0.2-0.1-0.2-0.1
				c0-0.1,0-0.1,0-0.2C196,70.6,196.2,70.5,196.2,70.4z"/>
			<path class="st13" d="M196,70.9c0.1,0.1,0.1,0.1,0.2,0.2c-1.8,0.5-3.6,0.8-5.4,1.2c-0.6,0.1-1.2,0.3-1.8,0.4
				c-0.2-0.2,0.1-0.3,0.1-0.5l0,0c0-0.1,0.1-0.2,0.2-0.3c1.9-0.4,3.7-0.8,5.6-1.2C195.3,70.6,195.7,70.5,196,70.9z"/>
			<path class="st14" d="M215,56.3c0.8,0.6,1.4,1.3,2.2,1.8c-0.8,0.1-1.5-0.1-2.2-0.4c-0.4-0.2-0.6-0.4-0.3-0.9
				C214.8,56.7,214.9,56.5,215,56.3z"/>
			<path class="st15" d="M199.6,32.1c-0.5,0.1-0.8-0.4-1.2-0.6c-0.2-0.1,0-0.3,0.2-0.4c0.4-0.1,0.8-0.2,1.1-0.3c0.4,0,0.8,0,0.9,0.5
				C200.6,31.7,200.1,32.1,199.6,32.1z"/>
			<path class="st16" d="M209.8,63.6c-0.2,0-0.3-0.1-0.4-0.3c-0.1-0.2,0-0.4,0.3-0.4c0.4-0.1,0.9-0.3,1.3-0.4c0.2-0.1,0.4,0,0.5,0.2
				s0,0.4-0.2,0.5C210.8,63.4,210.3,63.5,209.8,63.6z"/>
			<path class="st17" d="M206.7,61.4c1.4-0.1,2.6-0.5,3.9-1.2C210,61.3,207.8,62,206.7,61.4z"/>
			<path class="st18" d="M206,61.5c-1.5,0.6-3.2,0.3-4.1-0.7C203.3,61.2,204.5,61.5,206,61.5z"/>
			<path class="st16" d="M197.1,32.5c0.1-0.3,0-0.7,0.5-0.6c0.4,0,0.6,0.4,0.7,0.8c0,0.4-0.1,0.6-0.5,0.6
				C197.3,33.4,197.2,32.9,197.1,32.5z"/>
			<path class="st19" d="M196.1,35.7c0,0.3-0.1,0.5-0.4,0.4c-0.4,0-0.7-0.3-0.7-0.7c0,0,0,0,0-0.1c0.2-0.3,0.1-0.8,0.5-0.8
				C195.9,34.7,195.9,35.3,196.1,35.7z"/>
			<path class="st16" d="M209.5,66.3c-0.3,0-0.6-0.2-0.5-0.5c0-0.3,0.2-0.5,0.5-0.5s0.5,0.1,0.5,0.4C210,66.1,209.8,66.3,209.5,66.3
				z"/>
			<path class="st20" d="M205.1,66.5c-0.3,0-0.5-0.2-0.5-0.5s0.2-0.5,0.5-0.5s0.5,0.2,0.5,0.5S205.4,66.5,205.1,66.5z"/>
			<path class="st21" d="M203.7,71.3c0.4,0.1,0.5,0.3,0.5,0.6c0,0.3-0.2,0.5-0.5,0.4c-0.3,0-0.5-0.2-0.5-0.5S203.4,71.4,203.7,71.3z
				"/>
			<path class="st16" d="M209.2,72.3c0,0.3-0.2,0.5-0.5,0.5s-0.5-0.2-0.5-0.5s0.2-0.5,0.5-0.5S209.2,72,209.2,72.3z"/>
			<path class="st22" d="M209.8,68.8c0,0.3-0.2,0.5-0.5,0.6c-0.3,0-0.5-0.2-0.5-0.5s0.2-0.5,0.5-0.5
				C209.6,68.3,209.8,68.5,209.8,68.8z"/>
			<path class="st23" d="M202.1,74c-0.8-0.4-1.8-0.7-2.5-1.3c1,0.2,1.8,0.8,2.7,1.2C202.3,73.9,202.2,73.9,202.1,74z"/>
			<path class="st15" d="M204.6,69.5c-0.3,0-0.4-0.2-0.4-0.5s0.1-0.5,0.4-0.5c0.3,0,0.5,0.2,0.5,0.5S204.9,69.4,204.6,69.5z"/>
			<path class="st24" d="M202.1,74c0.1,0,0.1-0.1,0.2-0.1c0.6,0.1,0.7,0.3,0.4,0.9c-0.2,0.3-0.5,0.7-0.3,1.1c0,0.1,0,0.1,0,0.2
				c-0.1,0-0.2-0.1-0.2-0.1c-0.1,0-0.2,0-0.2-0.2c0.1-0.3,0.2-0.6,0.4-0.9C202.6,74.3,202.5,74.1,202.1,74z"/>
			<path class="st25" d="M195.8,69.8c-0.3,0.1-0.7,0.2-1,0.3c-0.1-0.1-0.1-0.2,0-0.2c0.1-0.2,0.2-0.4,0-0.5c0.1-0.1,0.1-0.1,0.2-0.2
				c0.1,0.2,0.1,0.3,0.4,0.3C195.6,69.5,195.8,69.6,195.8,69.8z"/>
			<path class="st26" d="M198.3,84.6c0,0.2,0,0.4,0.3,0.3s0.2,0.2,0.2,0.3c-0.5-0.1-0.7,0.1-0.8,0.5l0,0l0,0
				C197.9,85.3,198.1,85,198.3,84.6z"/>
			<path class="st27" d="M189.2,72c-0.1,0-0.1,0.1-0.2,0.1c0-0.4,0.2-0.8,0.4-1.1c0.1,0,0.1,0,0.2,0c0.1,0.1-0.2,0.3,0,0.4
				C189.7,71.8,189.3,71.8,189.2,72z"/>
			<path class="st28" d="M185.4,83.2c0.4,0.1,0.8,0.2,1.1,0.4C186.1,83.8,185.8,83.4,185.4,83.2C185.4,83.3,185.3,83.3,185.4,83.2
				L185.4,83.2z"/>
			<path class="st15" d="M185.5,79.5c0,0.4-0.2,0.7-0.5,1C185,80.1,185.2,79.7,185.5,79.5z"/>
			<path class="st29" d="M196,88c0.3,0,0.6,0,0.9-0.1C196.6,88.2,196.3,88.3,196,88C195.9,88.2,195.9,88.1,196,88
				C196,88.1,196,88,196,88z"/>
			<path class="st30" d="M188.3,73.9c-0.1,0.2-0.1,0.5-0.4,0.6c0-0.4,0.2-0.7,0.4-1C188.4,73.7,188.4,73.8,188.3,73.9z"/>
			<path class="st31" d="M194.4,70.2c-0.3-0.1-0.7-0.1-0.8-0.6c0.3,0.1,0.6,0.3,0.8,0.4C194.4,70,194.4,70.1,194.4,70.2
				C194.4,70.1,194.4,70.2,194.4,70.2z"/>
			<path class="st15" d="M187.2,76.4c-0.1,0.2-0.2,0.6-0.5,0.7c-0.1-0.3,0.2-0.5,0.3-0.7C187,76.3,187.1,76.3,187.2,76.4z"/>
			<path class="st32" d="M197.5,87c0-0.3,0.1-0.6,0.2-0.8c0.1,0,0.1,0.1,0.1,0.1C197.8,86.6,197.8,86.9,197.5,87z"/>
			<path class="st33" d="M190.7,68.8c0,0.3-0.1,0.5-0.3,0.7h-0.1C190.3,69.2,190.3,68.9,190.7,68.8z"/>
			<path class="st34" d="M194.1,87.3c0.2,0.1,0.6,0,0.7,0.4C194.6,87.7,194.3,87.6,194.1,87.3z"/>
			<path class="st35" d="M192.7,86.5c0.3,0,0.5,0.1,0.6,0.3C193.1,86.8,192.8,86.7,192.7,86.5L192.7,86.5z"/>
			<path class="st36" d="M192.7,69.3c-0.3,0-0.6-0.1-0.7-0.4C192.3,68.9,192.6,69,192.7,69.3z"/>
			<path class="st37" d="M188.8,84.6c0.3,0.2,0.6,0.2,0.8,0.4c-0.3,0.1-0.5-0.1-0.8-0.2C188.8,84.8,188.8,84.7,188.8,84.6z"/>
			<path class="st26" d="M187.8,74.7c0.2,0.3-0.1,0.5-0.2,0.7C187.5,75.1,187.6,74.9,187.8,74.7z"/>
			<path class="st38" d="M184.8,81c-0.1,0.2-0.2,0.4-0.4,0.5c0-0.2,0-0.4,0.2-0.6C184.6,80.9,184.7,80.9,184.8,81z"/>
			<path class="st26" d="M190.1,70c0,0.2,0,0.4-0.3,0.5l0,0C189.7,70.3,189.9,70.1,190.1,70L190.1,70z"/>
			<path class="st39" d="M185.4,83.2L185.4,83.2c-0.2,0-0.4-0.1-0.6-0.1C185,82.9,185.2,83.1,185.4,83.2z"/>
			<path class="st26" d="M190.1,70L190.1,70c-0.1-0.2,0.1-0.4,0.2-0.5h0.1C190.4,69.7,190.4,69.9,190.1,70z"/>
			<path class="st40" d="M188.8,84.6c0,0.1,0,0.1,0,0.2c-0.2-0.1-0.5-0.1-0.6-0.4C188.5,84.4,188.7,84.5,188.8,84.6z"/>
			<path class="st41" d="M190.4,85.4c0.2,0,0.3,0.1,0.3,0.3c-0.3,0-0.5-0.1-0.7-0.3C190.1,85.3,190.3,85.3,190.4,85.4z"/>
			<path class="st18" d="M192.7,86.5L192.7,86.5c-0.3,0.1-0.5-0.1-0.7-0.2v-0.1v-0.1C192.3,86.2,192.5,86.2,192.7,86.5z"/>
			<path class="st7" d="M186.1,78.3c0,0.2,0,0.4-0.3,0.5l0,0C185.8,78.6,185.9,78.4,186.1,78.3z"/>
			<path class="st42" d="M189.9,70.5C189.9,70.5,189.8,70.5,189.9,70.5c0,0.2,0,0.4-0.2,0.5c-0.1,0-0.1,0-0.2,0
				C189.6,70.8,189.6,70.6,189.9,70.5z"/>
			<path class="st26" d="M190.9,85.8c0.3-0.2,0.4-0.1,0.6,0.2l0,0C191.2,86,191.1,85.8,190.9,85.8z"/>
			<path class="st43" d="M202,75.7c0.1,0.1,0.1,0.1,0.2,0.2c-0.1,0.2-0.2,0.4-0.3,0.6c0-0.1-0.1-0.1-0.1-0.2
				C201.8,76,201.9,75.9,202,75.7z"/>
			<path class="st44" d="M189.1,72.2c0,0.2-0.1,0.3-0.1,0.5c-0.1,0.1-0.2,0.1-0.3,0.1C188.7,72.5,188.8,72.3,189.1,72.2z"/>
			<path class="st45" d="M184.2,82.2c0,0.2,0,0.3,0,0.5c-0.4-0.1-0.2-0.4-0.1-0.6C184.1,82,184.1,82.1,184.2,82.2z"/>
			<path class="st46" d="M193.5,86.9c0.3-0.1,0.5,0,0.5,0.3C193.8,87.2,193.6,87.2,193.5,86.9z"/>
			<path class="st18" d="M197.1,87.8c0-0.3,0.1-0.5,0.3-0.5C197.4,87.5,197.3,87.7,197.1,87.8z"/>
			<path class="st47" d="M191.4,68.8c-0.2,0-0.5-0.1-0.7-0.1C191,68.4,191.2,68.5,191.4,68.8z"/>
			<path class="st18" d="M185.8,78.9C185.8,78.9,185.9,78.9,185.8,78.9c0.1,0.3-0.1,0.4-0.3,0.6C185.5,79.2,185.6,79,185.8,78.9z"/>
			<path class="st48" d="M187.3,84c0.3,0,0.5,0.1,0.6,0.3C187.6,84.3,187.4,84.2,187.3,84C187.2,84,187.2,84,187.3,84z"/>
			<path class="st48" d="M186.7,77.2c0,0.3-0.2,0.5-0.4,0.7C186.3,77.6,186.4,77.3,186.7,77.2z"/>
			<path class="st49" d="M184.8,81c-0.1,0-0.1,0-0.2,0c0.1-0.2,0.1-0.4,0.4-0.4C185,80.7,184.9,80.9,184.8,81z"/>
			<path class="st50" d="M197.8,86.3l-0.1-0.1c0-0.1,0-0.3,0.2-0.4h0.1C198,86,197.9,86.1,197.8,86.3z"/>
			<path class="st51" d="M191.5,86L191.5,86c0.2-0.1,0.4,0,0.5,0.2c0,0.1,0,0.1,0,0.2C191.8,86.2,191.6,86.2,191.5,86z"/>
			<path class="st52" d="M194.4,70.2L194.4,70.2c0.1-0.1,0.3-0.2,0.4-0.2c0,0.1,0,0.2,0,0.2C194.7,70.2,194.6,70.4,194.4,70.2z"/>
			<path class="st42" d="M184.2,82.2c0-0.1-0.1-0.1-0.1-0.2c0-0.2,0-0.4,0.3-0.4C184.4,81.8,184.2,82,184.2,82.2z"/>
			<path class="st27" d="M188.3,73.9c0-0.1,0-0.2,0-0.3c0-0.1,0.1-0.3,0.2-0.3C188.6,73.5,188.5,73.7,188.3,73.9z"/>
			<path class="st53" d="M193.5,69.6c-0.3,0.1-0.5,0-0.7-0.2C193.1,69.3,193.3,69.5,193.5,69.6z"/>
			<path class="st54" d="M187.3,84L187.3,84c-0.3,0.1-0.5,0-0.7-0.2C186.8,83.8,187.1,83.7,187.3,84z"/>
			<path class="st55" d="M187.5,75.5c0,0.2-0.1,0.4-0.2,0.6c-0.1-0.1-0.1-0.2,0-0.3C187.3,75.7,187.3,75.6,187.5,75.5z"/>
			<path class="st56" d="M187.2,75.8c0,0.1,0,0.2,0,0.3c0,0.1-0.1,0.1-0.1,0.2c-0.1,0-0.1,0-0.2,0C187,76.2,187.1,76,187.2,75.8z"/>
			<path class="st57" d="M194.8,87.8c0.3,0,0.5-0.1,0.7,0.2l0,0C195.2,88.1,195,87.9,194.8,87.8z"/>
			<path class="st58" d="M209.8,76.5c0-0.1,0.1-0.3,0.1-0.4c0.1-0.1,0.2-0.2,0.2,0C210.1,76.3,210,76.4,209.8,76.5z"/>
			<path class="st7" d="M195.5,88L195.5,88c0.2,0,0.4,0,0.5,0v0.1C195.8,88.2,195.6,88.2,195.5,88z"/>
			<path class="st59" d="M190.4,85.4c-0.1,0-0.2,0-0.3,0s-0.3-0.1-0.3-0.2C190,85.1,190.2,85.2,190.4,85.4z"/>
			<path class="st60" d="M212,72.6l0.1,0.1c0,0.1-0.1,0.2-0.1,0.4C211.8,72.9,211.9,72.8,212,72.6z"/>
			<path class="st61" d="M216.3,45.1c0,0.1-0.1,0.2-0.3,0.3c-0.1,0-0.1-0.1-0.1-0.1C216,45.2,216.2,45.1,216.3,45.1
				C216.3,45,216.3,45,216.3,45.1z"/>
			<path class="st62" d="M210.6,50.9c1.6,3.3-0.5,7.1-4.2,7.7c-1.9,0.3-3.8,0.2-5.3-1.1c-1.7-1.4-2.6-3.2-2.1-5.4
				c0.1-0.7,0.4-1.2,0.9-1.7c0.3-0.1,0.4-0.3,0.4-0.5s0.1-0.4,0.4-0.3c0.2,0.1,0.2,0.3,0.1,0.4c0,0.1,0,0,0.1,0.1
				c0.2,0,0.3,0.2,0.5,0.2c0.1,0,0.1,0,0.2,0.1c0.4,0.1,0.9,0.1,1.3,0c0.5,0,0.8,0.1,1.1,0.5c0.2,1.2,1.2,1.6,2.3,1
				c0.2-0.1,0.3-0.3,0.5-0.3c0.5-0.2,1.1,0,1.6,0c0.2,0,0.4,0.1,0.3,0.4c-0.3,0.1-0.5,0.3-0.6,0.6c-0.1,0.4-0.4,0.7-0.6,1.1
				c-1,1.7-3.7,1.5-4.5-0.3c-0.1-0.1-0.1-0.3-0.2-0.4c-0.2-0.5-0.5-0.7-1.1-0.6c0.6,0,0.9,0.3,1.1,0.7c0.7,1.6,1.7,2.1,3.5,1.8
				c0.6-0.1,0.9-0.6,1.3-1c0.2-0.3,0.4-0.7,0.6-1c0.1-0.2,0.2-0.5,0.5-0.5c0.1,0,0.3,0,0.3,0.1c0,0.5,0.5,0,0.5,0.3
				c0.1-0.1,0-0.3,0.1-0.4c0.2-0.5,0.4-1,0.8-1.3C210.3,50.7,210.4,50.7,210.6,50.9z"/>
			<path class="st63" d="M208.6,51.8c0-0.3-0.3-0.3-0.4-0.2c-0.5,0.2-0.9-0.1-1.4,0l-0.1-0.1c-0.2-0.4,0-0.9-0.6-1
				c-0.6-0.2-1.1-0.1-1.7,0.1c-0.2,0.1-0.3,0.2-0.5,0.2c-0.7-0.3-1.4-0.3-2.2-0.2c-0.2,0-0.2-0.1-0.2-0.2c0.3-0.2,0.6-0.2,0.9-0.2
				c0.5,0,0.7-0.3,0.7-0.8c0-0.4-0.4-0.7-0.9-0.7c-0.4,0-0.7,0.2-0.7,0.7c0,0.3,0.2,0.7,0,1c-0.1,0-0.2,0.2-0.4,0
				c-0.5-0.7-0.2,0.2-0.4,0.2c-0.5-0.2,0.1-0.6-0.1-0.9c-0.5,0,0,1-0.8,0.7c0.2-0.2,0.3-0.5,0.2-0.8c-0.2-0.7,0.1-1.2,0.7-1.5
				c1-0.7,2.4-0.5,3.2,0.5c0.3,0.4,0.6,0.5,1.1,0.4s1.1-0.1,1.6-0.1c0.2,0,0.4-0.1,0.5-0.3c0.7-0.6,1.4-0.7,2.2-0.3
				c0.7,0.3,1.1,0.8,1,1.7c0,0.3,0.2,0.7,0.3,1c-0.1,0-0.2-0.1-0.3,0c-0.4,0.5-0.7,1-0.8,1.6c0,0.2-0.1,0.3-0.2,0.2
				c-0.3-0.3-0.5,0-0.6,0.2c-0.4-0.1,0.3-0.5-0.1-0.6C208.6,52.2,208.9,52,208.6,51.8z"/>
			<path class="st64" d="M200.8,42.6c-1.7,0.6-3.3,1.5-4.8,2.8c-0.1-0.1-0.1-0.2-0.1-0.2c0.6-0.8,0.6-0.8-0.3-1.4
				c-0.3-0.2-0.7-0.5-1-0.7c-0.8-0.7-0.9-1.7-0.1-2.5c0.4-0.5,1-0.8,1.6-1.1c1-0.4,2-0.2,2.6,0.8c0.3,0.5,0.5,1,0.7,1.6
				c0.2,0.5,0.4,0.8,0.9,0.5C200.5,42.5,200.7,42.3,200.8,42.6z"/>
			<path class="st64" d="M211.8,45.8c-1.4-1.4-3.1-2.3-4.9-3c0.3-0.2,0.5-0.1,0.7,0c0.7,0.3,0.9,0,1.1-0.6c0.8-2.2,2.4-2.2,3.9-0.6
				c0.6,0.7,0.6,1.5-0.2,2.1c-0.3,0.2-0.6,0.5-1,0.6c-0.4,0.2-0.5,0.4-0.1,0.7C211.5,45.1,211.8,45.4,211.8,45.8z"/>
			<path class="st65" d="M215.9,45.2l0.1,0.1c-0.5,0.8-1.4,1-1.9,1.8c-0.1,0.2-0.4,0.2-0.6,0.3c-0.2-0.3-0.5-0.6-0.7-0.9
				c-0.3-0.3-0.2-0.5,0.2-0.6C214,45.9,215,45.6,215.9,45.2z"/>
			<path class="st66" d="M200.8,42.6c-0.1-0.2-0.3-0.1-0.4-0.1c0.2-0.1,0.4-0.2,0.5,0C200.9,42.5,200.9,42.6,200.8,42.6z"/>
			<path class="st67" d="M220.8,54.6c-0.2-0.3-0.5-0.5,0-0.9c0.2-0.1,0-0.3-0.1-0.4c-0.2-0.1-0.4-0.3-0.3-0.5c0.1-0.2,0.4,0,0.5-0.1
				c0.7-0.3,1.4,0,2.1-0.4c0.4-0.2,0.6,0.2,0.5,0.5c-0.1,0.6,0,1.4-0.7,1.7c-0.2,0.1-0.1,0.4-0.4,0.4c-0.2,0-0.3,0-0.5,0.1l-0.1,0.1
				c-0.4,0.3-0.6,0-0.9-0.2C220.8,54.9,220.9,54.7,220.8,54.6z"/>
			<path class="st67" d="M219.1,50.8c-0.4-0.4-0.2-1,0.4-1.2c0.2-0.1,0.4-0.1,0.6-0.4c0.2-0.3,0.6-0.2,0.9-0.1
				c0.6,0.2,0.8,1.3,0.4,1.8c-0.1,0.1-0.2,0.1-0.2,0.2c-0.2,0.5-0.4,0.4-0.8,0.2c-0.1,0-0.2,0-0.3,0c-0.2,0-0.3,0-0.4-0.1l0,0
				C219.6,50.9,219.4,50.7,219.1,50.8z"/>
			<path class="st67" d="M226.7,46.5c0.2,0.2,0.8-0.1,0.8,0.6c0,0.2,0.3,0.1,0.4,0.1c0.1,0,0.3-0.1,0.4,0.1c0.1,0.2-0.1,0.2-0.2,0.3
				c-0.4,0.4-0.8,0.9-1,1.5c-0.2,0.3-0.4,0.3-0.6,0.1c-0.6-0.4-0.8-1.4-0.4-2C226.5,46.5,226.5,46.5,226.7,46.5z"/>
			<path class="st68" d="M222.4,49c-0.5-0.1-0.7-0.5-0.6-0.9c0.2-0.9,0.6-1.3,1.3-1.3c0.9,0,1.1,0.4,0.8,1.2c0,0,0.1,0.1,0.1,0.2
				c0.1,0.2,0.1,0.5,0,0.7c-0.1,0-0.2,0.1-0.3,0.1C223.3,49.2,222.9,49.1,222.4,49z"/>
			<path class="st67" d="M224.4,46.2c-0.2-0.5-0.8-1,0-1.6c0.2-0.2,0.4-0.2,0.7-0.2c0.5,0,0.7,0.5,1.2,0.5c0.2,0,0.2,0.4,0,0.6
				c-0.1,0.1-0.4,0.1-0.4,0.4c-0.2,0-0.4,0-0.5,0.3l0,0C225,46.4,224.7,46.4,224.4,46.2z"/>
			<path class="st67" d="M225.3,51.3c-0.3,0.2-0.8,0.2-0.9,0.7c-0.5,0.2-0.2-0.3-0.4-0.4c-0.4-0.6,0.2-1.1,0.2-1.6l0.1-0.1
				c0.4,0.2,1-0.1,1.4,0.1c0.4,0.2,0.4,0.6,0.2,1.1C225.7,51.2,225.5,51.1,225.3,51.3z"/>
			<path class="st67" d="M218.3,55c-0.1,0-0.1,0-0.2,0c-0.3,0.3-0.4,0-0.5-0.2l0,0c-0.1-0.1-0.3-0.1-0.5-0.2
				c-0.2-0.1-0.3-0.2-0.2-0.4c0.3-0.6,0.9-0.8,1.4-1c0.3-0.2,0.6,0.1,0.7,0.4c0.2,0.3,0.3,0.7,0,1c-0.1,0.1-0.3,0.2-0.4,0.4
				C218.5,55.3,218.4,55.2,218.3,55z"/>
			<path class="st67" d="M226.4,54.4l-0.1,0.1c-0.3,0.1-0.6,0.1-1,0c-0.2-0.2-0.3-0.4,0-0.7c0.3-0.4,0.5-0.9,0.9-1.2
				c0.2-0.1,0.4-0.4,0.7-0.2s0.1,0.5,0.1,0.7s-0.1,0.4-0.1,0.6C226.8,53.9,226.5,54.1,226.4,54.4z"/>
			<path class="st67" d="M229.3,49.8c-0.1,0.2-0.2,0.6-0.6,0.5c-0.4-0.1-0.8-0.3-0.9-0.8c-0.1-0.4,0.2-0.6,0.5-0.8s0.6-0.3,0.8,0.1
				c0.2,0.3,0.9,0.2,0.6,0.8C229.7,49.8,229.5,50,229.3,49.8z"/>
			<path class="st68" d="M224,56.9c-0.4-0.1-0.4-0.5-0.2-0.7c0.4-0.4,0.9-0.7,1.6-0.7c0.2,0,0.4,0.1,0.5,0.3s-0.1,0.4-0.2,0.5
				c-0.3,0.3-0.8,0.3-1.1,0.6C224.4,57,224.2,57.2,224,56.9z"/>
			<path class="st69" d="M228.2,51.6c-0.2-0.1-0.3-0.3,0-0.4c0.2,0,0.4,0,0.5,0c0.4-0.1,0.8-0.3,1.1,0.1c0.3,0.4-0.1,0.8-0.2,1.2
				c-0.1,0.3-0.3,0.4-0.4,0c-0.1-0.3-0.3-0.4-0.6-0.4C228.5,51.9,228.4,51.7,228.2,51.6z"/>
			<path class="st68" d="M217.5,52.5C217.5,52.5,217.4,52.4,217.5,52.5c-0.2-0.4-0.6-0.7-0.3-1s1.2-0.2,1.5,0.1
				c0.3,0.4,0.1,0.7-0.3,0.9C218.1,52.6,217.8,52.6,217.5,52.5z"/>
			<path class="st69" d="M215.3,51.3c0.3,0,0.9,0.7,0.9,1.1c0,0.3-0.3,0.3-0.5,0.4c-0.1,0.1-1.3-0.7-1.3-0.8
				C214.5,51.7,214.9,51.3,215.3,51.3z"/>
			<path class="st69" d="M219.6,57.3c-0.5,0-0.8-0.3-0.8-0.8s0.6-0.6,0.8-0.6c0.4,0,0.6,0.4,0.7,0.9
				C220.3,57.2,219.8,57.1,219.6,57.3z"/>
			<path class="st68" d="M222,58.1c-0.4,0.2-0.7-0.1-0.9-0.3s-0.1-0.5,0.1-0.7c0.2-0.3,0.6-0.2,0.9-0.1c0.2,0.1,0.9,0.1,0.4,0.7
				C222.2,57.7,222.1,57.9,222,58.1z"/>
			<path class="st68" d="M228,45L228,45c0-0.4-0.4-0.9,0.1-1c0.4-0.1,0.6,0.4,1,0.7c0.1,0.1,0.1,0.2,0,0.3c-0.2,0.1-0.2,0.5-0.5,0.2
				C228.3,45.1,228.1,45.2,228,45z"/>
			<path class="st69" d="M214.7,55c-0.2-0.1-0.5-0.3-0.3-0.6c0.1-0.3,0.5-0.2,0.7-0.2c0.3,0,0.4,0.1,0.4,0.4c0,0.3,0.3,0.6-0.2,0.7
				C215,55.3,214.9,55.1,214.7,55z"/>
			<path class="st70" d="M226.1,42.4c0.5,0,0.8,0.2,0.9,0.6c0,0.2-0.2,0.3-0.4,0.3c-0.4,0-0.8-0.2-0.9-0.6
				C225.6,42.3,225.9,42.5,226.1,42.4z"/>
			<path class="st68" d="M229.4,47.7c-0.2-0.3-0.5-0.6-0.3-1.1c0.1-0.2,0.1-0.3,0.3-0.4c0.3,0,0.2,0.3,0.3,0.3
				c0.3,0.2,0,0.5,0.2,0.7C229.9,47.6,229.8,47.8,229.4,47.7z"/>
			<path class="st68" d="M224.5,43.1c0,0.3-0.5,1-0.8,1c-0.2,0-0.3-0.2-0.3-0.4c0.1-0.4,0.2-0.8,0.7-0.9
				C224.4,42.8,224.5,42.9,224.5,43.1z"/>
			<path class="st67" d="M216.6,56.6c-0.2-0.2-0.2-0.4,0-0.6c0.3-0.3,0.6,0.1,0.9,0.2c0.3,0.1,0.3,0.4,0.2,0.6
				c-0.2,0.1-0.4,0-0.6,0.1C216.8,56.9,216.7,56.8,216.6,56.6z"/>
			<path class="st68" d="M213.6,51.3c0.1,0.4,0.1,0.7-0.3,0.7c-0.4,0-0.4-0.5-0.5-0.8s0.2-0.4,0.4-0.5
				C214,50.7,213.5,51.2,213.6,51.3z"/>
			<path class="st67" d="M216.1,50.4c0-0.3,0.1-0.4,0.4-0.5c0.1,0,0.3,0,0.3,0.1c0.1,0.2-0.1,0.4-0.2,0.5
				C216.5,50.6,216.3,50.7,216.1,50.4z"/>
			<path class="st71" d="M221,55c0.3,0.2,0.6,0.4,0.9,0.3c-0.4,0.5-0.6,0.2-0.9-0.1C220.9,55.1,220.9,55,221,55z"/>
			<path class="st72" d="M222.4,49c0.4-0.1,0.9,0,1.3-0.1C223.3,49.3,222.9,49.2,222.4,49z"/>
			<path class="st73" d="M219.1,50.8c0.4-0.2,0.6,0,0.7,0.4C219.5,51,219.3,50.9,219.1,50.8z"/>
			<path class="st74" d="M228,45c0.2,0,0.4-0.1,0.5,0.1c-0.2,0.1-0.4,0.2-0.6,0.1C227.8,45.2,227.9,45.1,228,45z"/>
			<path class="st75" d="M216.1,50.4c0.2,0.2,0.4,0.1,0.5,0.1c0,0.2-0.1,0.3-0.3,0.2C216.3,50.7,216,50.7,216.1,50.4z"/>
			<path class="st76" d="M229.4,47.7c0.3,0,0.4-0.2,0.5-0.4C230,47.8,229.9,47.9,229.4,47.7z"/>
			<path class="st77" d="M225.3,46.2c0-0.5,0.2-0.4,0.5-0.3C225.7,46.2,225.5,46.1,225.3,46.2z"/>
			<path class="st78" d="M214.7,55c0.3-0.1,0.4,0.2,0.6,0.4C214.9,55.5,214.9,55.1,214.7,55z"/>
			<path class="st79" d="M226.4,54.4c0-0.4,0.3-0.5,0.5-0.7C226.9,54,226.6,54.2,226.4,54.4z"/>
			<path class="st80" d="M217.5,52.5c0.3,0,0.6,0,0.9,0C218.1,52.7,217.8,52.7,217.5,52.5z"/>
			<path class="st81" d="M217.2,54.6c0.2,0,0.3,0,0.4,0.2c-0.2,0-0.5,0.1-0.7-0.1C217,54.6,217.1,54.7,217.2,54.6z"/>
			<path class="st82" d="M224,56.9c0.2,0,0.4,0.1,0.7,0.1C224.4,57.2,224.2,57.3,224,56.9z"/>
			<path class="st83" d="M224.4,46.2c0.3,0,0.6,0,0.9,0C225,46.5,224.7,46.5,224.4,46.2z"/>
			<path class="st84" d="M225.3,54.5c0.3,0,0.6,0,1,0C225.9,54.7,225.6,54.7,225.3,54.5z"/>
			<path class="st85" d="M224,51.5c0.2,0.1,0.1,0.5,0.4,0.4c0,0.1-0.1,0.2-0.2,0.2C223.9,52,224,51.7,224,51.5z"/>
			<path class="st86" d="M217.6,54.9c0.2,0.1,0.3,0.3,0.5,0.2c0,0.1-0.1,0.3-0.2,0.2C217.7,55.2,217.6,55.1,217.6,54.9z"/>
			<path class="st87" d="M222,55.1c0.1-0.3,0.2-0.3,0.5-0.1C222.3,55.1,222.2,55.1,222,55.1z"/>
			<path class="st88" d="M218.3,55c0.1,0,0.3,0.1,0.4,0.1c0,0.1,0,0.2-0.2,0.2S218.3,55.2,218.3,55z"/>
			<path class="st89" d="M225.3,51.3c0.1-0.3,0.3-0.2,0.5-0.3C225.8,51.3,225.6,51.3,225.3,51.3z"/>
			<path class="st90" d="M228.2,51.6c0.2,0.1,0.4,0.2,0.4,0.5C228.4,52,228.2,51.8,228.2,51.6z"/>
			<path class="st91" d="M222,58.1c0.1-0.2,0.1-0.5,0.4-0.4C222.3,57.8,222.2,58,222,58.1z"/>
			<path class="st92" d="M217,56.9c0.2,0,0.4,0,0.7,0C217.5,57.2,217.3,57,217,56.9C216.9,57,216.9,56.9,217,56.9
				C216.9,56.9,216.9,56.9,217,56.9z"/>
			<path class="st93" d="M217,56.9L217,56.9c-0.3,0.1-0.4,0-0.4-0.3C216.7,56.7,216.8,56.8,217,56.9z"/>
			<path class="st94" d="M221,55c0,0.1,0,0.1,0,0.2c-0.1-0.2-0.3-0.3-0.1-0.6C220.9,54.7,221,54.8,221,55z"/>
			<path class="st95" d="M219.7,51.1c0.1,0,0.3,0,0.4,0.1C219.9,51.5,219.8,51.3,219.7,51.1z"/>
			<path class="st96" d="M224,48.8c0-0.2,0-0.5,0-0.7C224.2,48.3,224.2,48.6,224,48.8z"/>
			<path class="st97" d="M217.2,54.6c-0.1,0-0.2,0.1-0.3,0.1c-0.2-0.1-0.2-0.3,0-0.4C217,54.5,217.1,54.6,217.2,54.6z"/>
			<path class="st98" d="M229.3,49.8c0.2-0.1,0.4-0.1,0.5-0.2C229.7,49.9,229.6,50.1,229.3,49.8z"/>
			<path class="st26" d="M191.6,78.1c0-0.6,0.1-1.2,0.5-1.6c0.1-0.1,0.1-0.1,0.1-0.2c-0.1-0.9,0.2-1.7,0.8-2.3
				c0.1-0.1,0.2-0.2,0.1-0.4c-0.3-0.5-0.2-1,0.2-1.3c0.5-0.4,1.1-0.3,1.6,0c0.4,0.2,0.6,0.6,0.5,1s0.3,0.4,0.5,0.6
				c0.3,0.2,0.3-0.1,0.4-0.3c0.3-0.4,0.8-0.4,1.2,0c0.3,0.3,0.6,0.7,0.7,1.2c0.1,0.4,0,0.8-0.6,0.8c-0.6-0.1-0.6,0.3-0.5,0.6
				c0.1,0.1,0.1,0.2,0.1,0.3c-0.1,0.5-0.4,0.9-0.7,1.3c-0.4,0.3-0.3,0.8-0.5,1.2c-0.2,0.1-0.3,0.2-0.6,0.2c-0.1-0.3,0-0.7-0.1-1
				c0-0.1-0.1,0-0.1,0h0.1c0.1,0.3,0.1,0.7,0,1c-0.2,0.6-0.6,1.1-1.1,1.4c-0.4,0.8-1.2,0.9-2,1.1c-0.2,0-0.4,0-0.5,0.1
				c0,0.1-0.1,0.2-0.2,0.3c-0.6,0.1-1.2-0.2-1.4-0.8c-0.5-1.4-0.3-2.1,1.1-3C191.5,78.3,191.6,78.3,191.6,78.1z"/>
			<path class="st99" d="M194.4,85.8c-0.5,0-1.4-0.6-1.3-0.8c0.3-0.4,0-1,0.6-1.2c0.1,0,1.7,0.8,1.6,0.9
				C195,85,194.7,85.4,194.4,85.8z"/>
			<path class="st100" d="M188.3,83.1c-0.4,0-1.5-0.7-1.5-0.9c0-0.4,0.7-1.4,0.9-1.4c0.4,0,1.5,0.8,1.5,1
				C189.3,82.2,188.6,83.1,188.3,83.1z"/>
			<path class="st101" d="M197.6,78.5c0,0.2-0.1,0.2-0.2,0.3c-0.3,0-0.6,0-0.8-0.2c0-0.1-0.1-0.1-0.1-0.2c0.2-0.7,0.6-1.3,0.8-2
				c0-0.1,0.1-0.2,0.2-0.3c0.4-0.2,0.9-0.1,1,0.3c0.2,0.4-0.1,0.8-0.5,1c-0.2,0.1-0.4,0.2-0.3,0.5C197.8,78,197.7,78.3,197.6,78.5z"
				/>
			<path class="st102" d="M193.3,83.7c-0.2,0.4-0.4,0.8-0.6,1.2c-0.1,0.2-0.2,0-0.3,0c-0.2-0.1-0.5-0.2-0.7-0.3
				c-0.2-0.1-0.6-0.1-0.4-0.4c0.1-0.3-0.1-0.8,0.5-0.7c0.1,0,0.2-0.1,0.3-0.2c0.2-0.1,0.4-0.1,0.3,0.2c0,0.2-0.1,0.3,0.1,0.4
				c0.2,0.1,0.3,0,0.4-0.2C193,83.6,193.1,83.5,193.3,83.7C193.3,83.6,193.3,83.6,193.3,83.7z"/>
			<path class="st103" d="M190.7,83c0.2-0.2-0.2-0.3,0-0.5c0.1-0.1,0.3,0,0.4,0.1c0.2,0.1,0.2,0.3,0.1,0.4c0,0.1-0.1,0.1-0.1,0.2
				c-0.4,0.8-1,0.9-1.7,0.3c-0.3-0.3,0.1-0.4,0-0.6c-0.1-0.3-0.2-0.4,0.2-0.3c0.2,0,0.2-0.2,0.3-0.3c0.1-0.1,0.2-0.1,0.3,0
				c0.1,0,0.1,0.1,0.1,0.2C190,83,190.5,82.9,190.7,83z"/>
			<path class="st104" d="M191.6,81.7c0.2-0.4,0.5-0.1,0.8-0.2c0.7-0.2,1.3-0.4,1.9-0.9c0.5,0.3,0.4,0.6,0,0.9
				c-0.2,0.2-0.5,0.3-0.8,0.4s-0.7,0-0.8,0.4c-0.1,0.2-0.6,0.2-0.7-0.2C191.8,81.9,191.7,81.8,191.6,81.7z"/>
			<path class="st105" d="M197.6,78.5c0-0.3,0.1-0.6-0.1-0.9c-0.1-0.1-0.1-0.3,0-0.4c0.2-0.1,0.3,0,0.5,0.1
				C198,77.8,198.1,78.2,197.6,78.5z"/>
			<path class="st106" d="M196.5,78.3c0,0.1,0,0.1,0,0.2c-0.1,0.4,0.3,0.3,0.5,0.4c-0.3,0.6-0.7,0.1-1,0.1c-0.1-0.5,0-1,0.4-1.3
				C196.6,77.8,196.4,78.1,196.5,78.3z"/>
			<path class="st107" d="M197.1,78.9c-0.1,0-0.3,0.1-0.4,0.1c-0.1,0-0.3,0-0.4-0.2c-0.1-0.2,0.2-0.2,0.3-0.3
				c0.2,0.1,0.5,0.2,0.7,0.3C197.2,78.8,197.1,78.8,197.1,78.9z"/>
			<path class="st108" d="M199.1,72.2c-0.2-0.2-0.8-0.1-0.4-0.6C198.9,71.7,199.1,71.9,199.1,72.2z"/>
			<path class="st109" d="M195.4,79.2c0-0.4,0-0.7,0-1.1h0.1c0,0.4,0,0.7,0,1.1C195.4,79.2,195.4,79.2,195.4,79.2z"/>
			<path class="st110" d="M197.4,76c0,0.1,0,0.2-0.1,0.3c-0.1,0.1-0.1,0.2-0.3,0.1c0-0.1,0-0.2,0-0.3
				C197.2,76.2,197.3,76.1,197.4,76z"/>
			<path class="st111" d="M191.6,81.7c0.2,0.1,0.3,0.2,0.2,0.4c-0.1,0-0.2,0-0.2,0C191.6,81.9,191.6,81.8,191.6,81.7z"/>
			<path class="st112" d="M191.6,78.1c0,0.1,0,0.3,0,0.5c-0.1-0.2-0.2-0.3-0.3-0.3C191.4,78.1,191.5,78.1,191.6,78.1z"/>
			<path class="st113" d="M208,83.2c0,0.1,0,0.3-0.2,0.3c-0.3-0.1-0.5-0.4-0.7-0.7c-0.1-0.1,0-0.2,0.2-0.2
				C207.7,82.6,207.9,82.9,208,83.2z"/>
			<path class="st114" d="M207.3,83.3c0,0.2-0.1,0.3-0.2,0.3c-0.2,0-0.3-0.2-0.4-0.4c0-0.2,0-0.3,0.2-0.2
				C207.1,83,207.2,83.2,207.3,83.3z"/>
			<path class="st115" d="M206.6,83.6c0,0.2-0.1,0.3-0.2,0.3c-0.2,0-0.3-0.1-0.3-0.3c0-0.2,0.1-0.3,0.2-0.3
				C206.5,83.3,206.5,83.5,206.6,83.6z"/>
			<path class="st116" d="M202,83.6c0.3,0,0.7,0.7,0.6,1c0,0.1-0.1,0.1-0.1,0.1c-0.3,0-0.3-0.2-0.5-0.4c-0.1-0.2-0.3-0.4-0.2-0.7
				C201.9,83.6,202,83.6,202,83.6z"/>
			<path class="st117" d="M201.9,84.8c0,0.2-0.1,0.4-0.2,0.3c-0.4-0.1-0.4-0.5-0.5-0.7s0.2-0.3,0.3-0.3
				C201.8,84.2,201.9,84.5,201.9,84.8z"/>
			<path class="st117" d="M201.2,85.1c0,0.1-0.1,0.3-0.2,0.3c-0.2,0-0.3-0.2-0.3-0.4c0-0.2,0.1-0.2,0.2-0.2
				C201.1,84.7,201.1,84.9,201.2,85.1z"/>
			<path class="st118" d="M189.2,72c0-0.3,0.2-0.4,0.4-0.6c1.4-0.3,2.9-0.5,4.3-0.9c0.7-0.2,1.3,0,1.9-0.1c0.1,0.1,0.2,0.1,0.1,0.2
				c0,0.1,0,0.1,0,0.2c-0.8-0.3-1.6,0.1-2.4,0.2C192.2,71.4,190.7,71.7,189.2,72z"/>
			<path class="st119" d="M196,70.7c0-0.1-0.1-0.2-0.1-0.2c0.1-0.1,0.2-0.1,0.4-0.1C196.2,70.5,196.3,70.8,196,70.7z"/>
			<path class="st7" d="M203.9,50.8c0.6-0.7,1.5-0.7,2.3-0.5c0.7,0.2,0.7,0.7,0.6,1.3c-0.5,0.6-1.1,0.7-1.8,0.7
				C204,52.2,203.7,51.7,203.9,50.8z"/>
			<path class="st12" d="M208.6,51.8c0.2,0.1,0.5-0.1,0.5,0.2c0,0.4-0.4,0.2-0.6,0.3c-0.2,0-0.2,0.2-0.3,0.3c-0.2,0.3-0.3,0.7-0.5,1
				c-0.6,1.3-1.8,1.5-3.1,1.4c-1.1-0.1-1.6-0.8-2-1.7c-0.2-0.5-0.4-0.9-1.1-0.8c-0.1,0-0.3,0-0.3-0.2s0.2-0.2,0.3-0.2
				c0.8-0.1,1.1,0,1.4,0.8c0.3,0.8,0.7,1.4,1.6,1.7c1.3,0.3,2.2-0.1,2.9-1.3c0.2-0.3,0.4-0.6,0.5-0.9
				C208,51.9,208.2,51.8,208.6,51.8z"/>
			<path class="st7" d="M208.4,50.6c-0.9-0.1-1-0.2-1-1c0-0.6,0.4-0.9,1-0.9c0.7,0.1,1.1,0.4,1,1C209.4,50.3,209,50.7,208.4,50.6z"
				/>
			<path class="st7" d="M201.4,50.4c-0.1-0.3-0.1-0.5-0.2-0.8c0-0.5,0.1-0.9,0.6-1s0.9,0,1.3,0.4c0.4,0.4,0.1,0.8-0.1,1.2
				c-0.2,0.3-0.5,0.3-0.7,0.3C202,50.4,201.7,50.4,201.4,50.4L201.4,50.4z"/>
			<path class="st7" d="M197,39.8c0.5,0.1,1,0.3,1.3,0.7c0.1,0.2,0.2,0.3,0.3,0.5c0.2,0.5,0.6,1.1,0.6,1.6c0,0.6-0.9,0.5-1.3,0.9
				c-0.8,0.9-1.5,0.5-2.3-0.1c-1.8-1.2-1.4-2.1,0.1-3.1C196.1,40,196.5,39.8,197,39.8z"/>
			<path class="st7" d="M210.5,40.7c0.8,0,2.1,0.9,2.2,1.6c0.1,0.4-0.1,0.7-0.3,0.9c-0.5,0.4-1,0.7-1.5,1c-0.2,0.1-0.3,0-0.4-0.1
				c-0.4-0.4-0.9-0.7-1.4-0.9c-0.2-0.1-0.3-0.2-0.2-0.5c0.3-0.6,0.5-1.2,1-1.7C210,40.8,210.3,40.7,210.5,40.7z"/>
			<path class="st120" d="M196,76.4c-0.1,0.6-0.5,0.9-1,0.9s-1.1-0.2-1.3-0.8c-0.2-0.5-0.1-1,0.4-1.4c0.3-0.2,0.4-0.6,0.8-0.3
				c0,0.1,0,0.2-0.1,0.2c-0.2,0.1-0.1,0.3,0,0.4l0.1,0.1c0.1,0.3,0.3,0.2,0.5,0.2s0.4,0.1,0.5,0.2C196.1,76,196.1,76.2,196,76.4z"/>
			<path class="st121" d="M197.1,76.5c0.1,0,0.2-0.1,0.3-0.1c-0.1,0.7-0.5,1.3-0.8,1.9c-0.2,0.1-0.3,0.1-0.2-0.2
				c0-0.2,0.1-0.3,0.2-0.5C196.7,77.3,196.9,76.9,197.1,76.5z"/>
			<path class="st122" d="M194,73.4c0-0.3-0.3-0.6,0-0.9c0.2,0,0.4,0,0.5,0.1l0,0c0.3,0.2,0.2,0.4,0.1,0.7
				C194.5,73.5,194.2,73.5,194,73.4z"/>
			<path class="st123" d="M197.3,74.9c-0.3,0.2-0.4,0-0.6-0.2c-0.1-0.2-0.2-0.3,0-0.5s0.4,0,0.6,0c0,0.1,0,0.1,0,0.2
				c-0.1,0.1,0,0.2-0.1,0.3C197.1,74.9,197.4,74.9,197.3,74.9z"/>
			<path class="st124" d="M194.8,74.9l0.1-0.1c0.2,0.5,0.7,0.5,1.1,0.6c-0.1,0.1-0.2,0.2-0.3,0.2c-0.1,0.1-0.3,0.1-0.4,0.1
				c-0.2,0-0.4,0-0.5-0.2c0-0.1,0-0.1,0-0.2C194.7,75.2,194.7,75.1,194.8,74.9z"/>
			<path class="st125" d="M194,73.4c0.2,0,0.4-0.1,0.7-0.1h0.1c0,0.1,0.3,0.2,0.1,0.2C194.6,73.6,194.3,73.5,194,73.4
				C194,73.5,194,73.5,194,73.4C194,73.5,194,73.4,194,73.4z"/>
			<path class="st126" d="M195.7,75.5c0.1,0,0.2-0.1,0.3-0.1c0.3,0.3,0.1,0.6,0,0.9c0-0.1,0-0.3-0.2-0.4
				C195.7,75.8,195.7,75.7,195.7,75.5z"/>
			<path class="st127" d="M194.5,72.6c-0.2-0.1-0.4,0.1-0.5-0.1C194.2,72.3,194.4,72.3,194.5,72.6z"/>
			<path class="st128" d="M191.2,81.9c-0.1,0-0.2,0-0.2-0.1s0.1-0.2,0.2-0.1c0.1,0,0.1,0.1,0.1,0.1
				C191.4,81.9,191.3,81.9,191.2,81.9z"/>
			<path class="st129" d="M194.8,73.3c-0.1,0.1-0.1,0.1-0.1,0c0-0.2,0.1-0.4-0.1-0.6C195,72.7,194.7,73.1,194.8,73.3z"/>
			<path class="st130" d="M191.8,79.3c-0.3,0.1-0.5,0.1-0.6-0.2C191.4,79.1,191.6,79.2,191.8,79.3z"/>
			<path class="st131" d="M193.4,77.5c0-0.2,0-0.4,0-0.7C193.6,77.1,193.4,77.3,193.4,77.5z"/>
			<path class="st132" d="M197.4,74.3c-0.2,0-0.4-0.2-0.6,0C197,73.9,197.2,74,197.4,74.3z"/>
			<path class="st133" d="M197.3,74.9c-0.2-0.1-0.2-0.1,0.1-0.4C197.5,74.7,197.5,74.8,197.3,74.9z"/>
			<path class="st134" d="M188.2,81.3c0.5,0.2,0.6,0.5,0.5,1c-0.1,0-0.1,0-0.1-0.1c-0.1-0.1-0.2-0.2-0.3-0.3
				C188.2,81.7,188.1,81.5,188.2,81.3z"/>
			<path class="st135" d="M188.7,82.2L188.7,82.2c-0.3,0.2-0.5,0.5-0.8,0.1v-0.1C188.1,81.8,188.4,82.1,188.7,82.2z"/>
			<path class="st136" d="M187.6,81.9c-0.1-0.1-0.1-0.2-0.1-0.4c0.1-0.2,0.2-0.1,0.3,0c0.1,0,0.1,0.1,0.1,0.2s0,0.2-0.1,0.3
				C187.8,82,187.7,82,187.6,81.9z"/>
			<path class="st137" d="M187.9,81.7L187.9,81.7c0.1-0.2,0.2-0.3,0.3-0.4c0.2,0.2,0.2,0.4,0.2,0.6C188.1,82.1,188,81.8,187.9,81.7z
				"/>
			<path class="st138" d="M187.6,81.9c0.1,0,0.2,0,0.3,0c0.1,0.1,0.1,0.3,0,0.4l0,0C187.6,82.3,187.6,82.1,187.6,81.9z"/>
			<path class="st139" d="M192.5,82.1c0,0-0.1,0-0.1,0.1c-0.1,0-0.2,0-0.2-0.1l0.1-0.1C192.4,81.9,192.5,81.9,192.5,82.1z"/>
			<path class="st140" d="M194.8,75.6c0.2,0,0.4-0.1,0.5,0.1c0.1,0.1,0.1,0.1,0,0.2C195,76,194.8,76,194.8,75.6z"/>
			<path class="st141" d="M194.8,74.9c0.2,0.2,0.2,0.3,0,0.5c-0.1,0-0.3-0.1-0.3-0.2C194.5,75,194.6,74.9,194.8,74.9z"/>
			<path class="st142" d="M195.3,75.9c0-0.1,0-0.1,0-0.2c0.1,0,0.3-0.1,0.4-0.1c0.2,0.1,0.2,0.2,0.1,0.4
				C195.7,75.9,195.5,75.9,195.3,75.9z"/>
			<path class="st143" d="M194.8,76.5c-0.5,0-0.4-0.4-0.4-0.9C194.6,76,194.5,76.3,194.8,76.5L194.8,76.5z"/>
			<path class="st144" d="M194.8,76.5C194.8,76.5,194.8,76.4,194.8,76.5c0.2-0.1,0.3-0.1,0.5-0.1v0.1
				C195.2,76.6,195,76.7,194.8,76.5z"/>
			<path class="st145" d="M195.3,76.4L195.3,76.4c0-0.2,0.1-0.3,0.3-0.3l0.1,0.1C195.6,76.4,195.5,76.4,195.3,76.4z"/>
			<path class="st146" d="M187.9,82.3c0-0.1,0-0.3,0-0.4s0-0.2,0-0.3c0.1,0.1,0.3,0.2,0.4,0.2c0.2,0,0.2,0.1,0.3,0.3
				C188.4,82.3,188.1,81.9,187.9,82.3z"/>
		</g>
	</g>
	<g>
		
			<image style="overflow:visible;opacity:0.75;" width="37" height="33" xlink:href="146334DC.png"  transform="matrix(1 0 0 1 233 55)">
		</image>
		<g>
			<g>
				<text transform="matrix(1 0 0 1 237.4977 75.2322)" class="st6 st1 st148">담기</text>
			</g>
		</g>
	</g>
</g>
</svg>
